<svg version="1.1" xmlns="http://www.w3.org/2000/svg" xmlns:xlink="http://www.w3.org/1999/xlink" width="" height="" viewBox="0, 0, 600, 600">
<style>
  @media (prefers-color-scheme: light) {
    .logo {
      fill: #473a39
    }
    .space {
      fill: #fff
    }
  }
</style>
<path class="logo" fill="#ffc7c7" stroke="" d="M202 0L203 1L202 0z"/>
<path class="logo" fill="#ffc7c7" stroke="white" d="M1 393C5.07579 407.121 16.7509 420.18 27.0895 430.169C64.8901 466.691 125.578 474.85 171 447.6C180.172 442.098 190.588 435.712 197 427L198 427C225.337 465.804 289.389 471.536 330 454.985C339.213 451.231 348.045 446.061 356 440.105C359.695 437.338 364.508 431.329 369 430.203C373.239 429.14 378.904 436.514 382 438.87C391.929 446.422 403.143 452.98 415 456.996C463.776 473.518 519.817 458.496 551.497 417C576.83 383.817 576 347.608 576 308L576 197C576 166.663 568.062 124.55 596 103.761C617.456 87.7954 647.827 93 673 93C659.563 28.0711 589.204 -12.7865 526 3.88428C511.458 7.71982 497.211 13.9187 485 22.7454C481.212 25.4836 473.882 34.7803 469 33.963C464.339 33.1825 459.706 26.8916 456 24.1559C447.417 17.821 437.9 12.4511 428 8.45294C388.091 -7.66531 324.64 -0.793732 298 37C283.209 23.3758 266.457 11.5828 247 5.72147C186.03 -12.6455 118.367 19.1165 96.6983 80C87.4611 105.954 90 133.939 90 161L90 292C90 321.563 97.1843 359.2 72 380.699C52.5229 397.326 24.7276 393 1 393z"/>
<path class="logo" fill="#ffc7c7" stroke="" d="M218.667 0.333344L219.333 0.666656L218.667 0.333344z"/>
<path class="logo" fill="#ffc7c7" stroke="" d="M375.667 0.333344L376.333 0.666656L375.667 0.333344M391.667 0.333344L392.333 0.666656L391.667 0.333344z"/>
<path class="logo" fill="#ffc7c7" stroke="" d="M547.667 0.333344L548.333 0.666656L547.667 0.333344M563.667 0.333344L564.333 0.666656L563.667 0.333344z"/>
<path class="logo" fill="#ffc7c7" stroke="" d="M193 1L194 2L193 1M227.667 1.33334L228.333 1.66666L227.667 1.33334M366 1L367 2L366 1M400.667 1.33334L401.333 1.66666L400.667 1.33334M538 1L539 2L538 1M573 1L574 2L573 1M187 2L188 3L187 2M233 2L234 3L233 2M360 2L361 3L360 2M407 2L408 3L407 2M579 2L580 3L579 2M182 3L183 4L182 3M238 3L239 4L238 3M355 3L356 4L355 3M411 3L412 4L411 3M178 4L179 5L178 4M242 4L243 5L242 4M415 4L416 5L415 4M587 4L588 5L587 4M175 5L176 6L175 5M348 5L349 6L348 5M419 5L420 6L419 5M520 5L521 6L520 5M345 6L346 7L345 6M422 6L423 7L422 6M517 6L518 7L517 6M514 7L515 8L514 7M166 8L167 9L166 8M254 8L255 9L254 8M337 9L338 10L337 9M509 9L510 10L509 9M602 9L603 10L602 9M432 10L433 11L432 10M604 10L605 11L604 10M159 11L160 12L159 11M261 11L262 12L261 11M434 11L435 12L434 11M157 12L158 13L157 12M263 12L264 13L263 12M155 13L156 14L155 13M438 13L439 14L438 13M153 14L154 15L153 14M267 14L268 15L267 14M440 14L441 15L440 14M498 14L499 15L498 14M442 15L443 16L442 15M323 16L324 17L323 16M616 16L617 17L616 16M148 17L149 18L148 17M272 17L273 18L272 17M321 17L322 18L321 17M447 18L448 19L447 18M491 18L492 19L491 18M318 19L319 20L318 19M143 20L144 21L143 20M450 20L451 21L450 20M488 20L489 21L488 20M315 21L316 22L315 21M453 22L454 23L453 22M139 23L140 24L139 23M281 23L282 24L281 23M312 23L313 24L312 23M456 24L457 25L456 24M628 24L629 25L628 24M457 25L458 26L457 25M629 25L630 26L629 25M135 26L136 27L135 26M285 26L286 27L285 26M480 26L481 27L480 26M307 27L308 28L307 27M633 28L634 29L633 28M462 29L463 30L462 29M634 29L635 30L634 29M130 30L131 31L130 30M290 30L291 31L290 30M463 30L464 31L463 30M475 30L476 31L475 30M129 31L130 32L129 31M291 31L292 32L291 31M464 31L465 32L464 31M474 31L475 32L474 31M128 32L129 33L128 32M292 32L293 33L292 32M465 32L466 33L465 32M473 32L474 33L473 32M127 33L128 34L127 33M472 33L473 34L472 33M299 34L300 35L299 34M471 34L472 35L471 34M298 35L299 36L298 35M470 35L471 36L470 35M297 36L298 37L297 36M120 40L121 41L120 40M119 41L120 42L119 41M646 41L647 42L646 41M647 42L648 43L647 42M115 46L116 47L115 46M651 47L652 48L651 47M112 50L113 51L112 50M654 51L655 52L654 51M656 54L657 55L656 54M106 59L107 60L106 59M659 59L660 60L659 59M105 61L106 62L105 61M662 64L663 65L662 64M663 66L664 67L663 66M664 68L665 69L664 68M99 73L100 74L99 73M667 75L668 76L667 75M670 83L671 84L670 83M94 87L95 88L94 87M672 90L673 91L672 90M620 93L620 94L623 94L620 93z"/>
<path class="logo" fill="#ffc7c7" stroke="" d="M615 94L616 95L615 94M92 95L93 96L92 95M611 95L612 96L611 95z"/>
<path class="space" fill="#000" stroke="none" d="M221 392C262.55 386.4 263 346.539 263 314L263 173C263 148.028 259.701 120.348 266 96C228.78 104.845 231 145.257 231 175L231 299C231 331.203 232.793 361.43 221 392M437 96C428.46 100.879 420.732 104.982 414.529 113C398.833 133.284 405 165.899 405 190L405 301C405 332.26 406.069 362.575 394 392C415.188 385.987 431.019 372.678 434.561 350C437.111 333.674 435 315.522 435 299L435 198L435 122C435.001 113.648 438.167 104.083 437 96z"/>
<path class="logo" fill="#ffc7c7" stroke="" d="M608 96L609 97L608 96M265 97L266 98L265 97M434 97L435 98L434 97M437 97L438 98L437 97M432 98L433 99L432 98M91 100L92 101L91 100M255 100L256 101L255 100M428 100L429 101L428 100M600 100L601 101L600 100M264.333 102.667L264.667 103.333L264.333 102.667M425 102L426 103L425 102M436.333 102.667L436.667 103.333L436.333 102.667M597 102L598 103L597 102M249 104L250 105L249 104M594 104L595 105L594 104M248 105L249 106L248 105M421 105L422 106L421 105M593 105L594 106L593 105M420 106L421 107L420 106M592 106L593 107L592 106M90 107L91 108L90 107M419 107L420 108L419 107M418 108L419 109L418 108M417 109L418 110L417 109M589 109L590 110L589 109M588 110L589 111L588 110M242 111L243 112L242 111M263.333 111.667L263.667 112.333L263.333 111.667M435.333 111.667L435.667 112.333L435.333 111.667M587 111L588 112L587 111M413 114L414 115L413 114M239 115L240 116L239 115M584 115L585 116L584 115M411 117L412 118L411 117M583 117L584 118L583 117M410 119L411 120L410 119M408 123L409 124L408 123M234 125L235 126L234 125M579 125L580 126L579 125M578 128L579 129L578 128M232 131L233 132L232 131M405 132L406 133L405 132M577 132L578 133L577 132M231 137L231 140L232 140L231 137M576 138L576 336L577 336L577 197L577 157L576 138M404 139L404 336L405 336L405 198L405 158L404 139M404 339L404 346L405 346L404 339M576 339L576 346L577 346L576 339M89 349L90 350L89 349M262 350L263 351L262 350M434 350L435 351L434 350M88 354L89 355L88 354M261 355L262 356L261 355M433 355L434 356L433 355M230.333 356.667L230.667 357.333L230.333 356.667M87 358L88 359L87 358M403 358L404 359L403 358M575 358L576 359L575 358M259 361L260 362L259 361M431 361L432 362L431 361M85 363L86 364L85 363M229 363L230 364L229 363M574 364L575 365L574 364M84 365L85 366L84 365M83 367L84 368L83 367M256 367L257 368L256 367M228 368L229 369L228 368M255 369L256 370L255 369M427 369L428 370L427 369M573 369L574 370L573 369M79 373L80 374L79 373M424 373L425 374L424 373M226 376L227 377L226 376M399 377L400 378L399 377M571 377L572 378L571 377M398 380L399 381L398 380M71 381L72 382L71 381M415 382L416 383L415 382M242 383L243 384L242 383M397 383L398 384L397 383M569 383L570 384L569 383M67 384L68 385L67 384M412 384L413 385L412 384M223 385L224 386L223 385M239 385L240 386L239 385M396 386L397 387L396 386M568 386L569 387L568 386M235 387L236 388L235 387M222 388L223 389L222 388M233 388L234 389L233 388M395 388L396 389L395 388M57 389L58 390L57 389M402 389L403 390L402 389M54 390L55 391L54 390M221 390L222 391L221 390M228 390L229 391L228 390M399 390L400 391L399 390M224 391L225 392L224 391M395 391L396 392L395 391M42 392L42 393L45 393L42 392M565 393L566 394L565 393M562 399L563 400L562 399M561 401L562 402L561 401M5 402L6 403L5 402M558 406L559 407L558 406M8 407L9 408L8 407M556 409L557 410L556 409M10 410L11 411L10 410M554 412L555 413L554 412M12 413L13 414L12 413M552 415L553 416L552 415M15 417L16 418L15 417M16 418L17 419L16 418M549 419L550 420L549 419M548 420L549 421L548 420M547 421L548 422L547 421M21 424L22 425L21 424M22 425L23 426L22 425M23 426L24 427L23 426M197 427L203 433L197 427M25 428L26 429L25 428z"/>
<path class="logo" fill="#ffc7c7" stroke="" d="M370 428L371 429L370 428M26 429L27 430L26 429M371 429L372 430L371 429M27 430L28 431L27 430M372 430L373 431L372 430M28 431L29 432L28 431M373 431L374 432L373 431M29 432L30 433L29 432M191 432L192 433L191 432M374 432L375 433L374 432M190 433L191 434L190 433M534 434L535 435L534 434M361 435L362 436L361 435M533 435L534 436L533 435M360 436L361 437L360 436M35 437L36 438L35 437M185 437L186 438L185 437M208 437L209 438L208 437M380 437L381 438L380 437M36 438L37 439L36 438M184 438L185 439L184 438M356 439L357 440L356 439M528 439L529 440L528 439M212 440L213 441L212 440M384 440L385 441L384 440M180 441L181 442L180 441M525 441L526 442L525 441M352 442L353 443L352 442M177 443L178 444L177 443M388 443L389 444L388 443M218 444L219 445L218 444M349 444L350 445L349 444M521 444L522 445L521 444M174 445L175 446L174 445M391 445L392 446L391 445M48 446L49 447L48 446M172 446L173 447L172 446M221 446L222 447L221 446M393 446L394 447L393 446M344 447L345 448L344 447M516 447L517 448L516 447M51 448L52 449L51 448M53 449L54 450L53 449M167 449L168 450L167 449M398 449L399 450L398 449M55 450L56 451L55 450M400 450L401 451L400 450M57 451L58 452L57 451M404 452L405 453L404 452M507 452L508 453L507 452M61 453L62 454L61 453M159 453L160 454L159 453M406 453L407 454L406 453M157 454L158 455L157 454M237 454L238 455L237 454M408 454L409 455L408 454M502 454L503 455L502 454M66 455L67 456L66 455M328 455L329 456L328 455M500 455L501 456L500 455M69 456L70 457L69 456M152 456L153 457L152 456M242 456L243 457L242 456M413 456L414 457L413 456M72 457L73 458L72 457M149 457L150 458L149 457M245 457L246 458L245 457M322 457L323 458L322 457M416 457L417 458L416 457M494 457L495 458L494 457M75 458L76 459L75 458M146 458L147 459L146 458M319 458L320 459L319 458M491 458L492 459L491 458M142 459L143 460L142 459M251 459L252 460L251 459M423 459L424 460L423 459M487 459L488 460L487 459M82 460L83 461L82 460M138 460L139 461L138 460M255 460L256 461L255 460M312 460L313 461L312 460M87 461L88 462L87 461M134 461L135 462L134 461M308 461L309 462L308 461M479 461L480 462L479 461M92 462L93 463L92 462M128 462L129 463L128 462M264.667 462.333L265.333 462.667L264.667 462.333M302 462L303 463L302 462M436 462L437 463L436 462M473 462L474 463L473 462M100.667 463.333L101.333 463.667L100.667 463.333M120.667 463.333L121.333 463.667L120.667 463.333M272 463L272 464L275 464L272 463M293.667 463.333L294.333 463.667L293.667 463.333M444 463L444 464L447 464L444 463M461 463L461 464L466 464L461 463z"/>
</svg>
