<?xml version="1.0" encoding="UTF-8" standalone="no"?>
<!DOCTYPE svg PUBLIC "-//W3C//DTD SVG 1.1//EN"
 "http://www.w3.org/Graphics/SVG/1.1/DTD/svg11.dtd">
<!-- Generated by graphviz version 5.0.1 (20220820.1526)
 -->
<!-- Title: dependency&#45;cruiser output Pages: 1 -->
<svg width="408pt" height="490pt"
 viewBox="0.00 0.00 407.50 490.00" xmlns="http://www.w3.org/2000/svg" xmlns:xlink="http://www.w3.org/1999/xlink">
<g id="graph0" class="graph" transform="scale(1 1) rotate(0) translate(4 486)">
<title>dependency&#45;cruiser output</title>
<polygon fill="white" stroke="none" points="-4,4 -4,-486 403.5,-486 403.5,4 -4,4"/>
<g id="clust1" class="cluster">
<title>cluster_src</title>
<path fill="#ffffff" stroke="black" stroke-width="2" d="M20,-8C20,-8 379.5,-8 379.5,-8 385.5,-8 391.5,-14 391.5,-20 391.5,-20 391.5,-462 391.5,-462 391.5,-468 385.5,-474 379.5,-474 379.5,-474 20,-474 20,-474 14,-474 8,-468 8,-462 8,-462 8,-20 8,-20 8,-14 14,-8 20,-8"/>
<text text-anchor="middle" x="199.75" y="-462.8" font-family="Helvetica,sans-Serif" font-weight="bold" font-size="9.00">src</text>
</g>
<g id="clust2" class="cluster">
<title>cluster_src/features</title>
<path fill="#ffffff" stroke="black" stroke-width="2" d="M28,-298C28,-298 122,-298 122,-298 128,-298 134,-304 134,-310 134,-310 134,-436 134,-436 134,-442 128,-448 122,-448 122,-448 28,-448 28,-448 22,-448 16,-442 16,-436 16,-436 16,-310 16,-310 16,-304 22,-298 28,-298"/>
<text text-anchor="middle" x="75" y="-436.8" font-family="Helvetica,sans-Serif" font-weight="bold" font-size="9.00">features</text>
</g>
<g id="clust3" class="cluster">
<title>cluster_src/features/post</title>
<path fill="#ffffff" stroke="black" stroke-width="2" d="M36,-306C36,-306 114,-306 114,-306 120,-306 126,-312 126,-318 126,-318 126,-410 126,-410 126,-416 120,-422 114,-422 114,-422 36,-422 36,-422 30,-422 24,-416 24,-410 24,-410 24,-318 24,-318 24,-312 30,-306 36,-306"/>
<text text-anchor="middle" x="75" y="-410.8" font-family="Helvetica,sans-Serif" font-weight="bold" font-size="9.00">post</text>
</g>
<g id="clust4" class="cluster">
<title>cluster_src/features/post/components</title>
<path fill="#ffffff" stroke="black" stroke-width="2" d="M44,-314C44,-314 106,-314 106,-314 112,-314 118,-320 118,-326 118,-326 118,-384 118,-384 118,-390 112,-396 106,-396 106,-396 44,-396 44,-396 38,-396 32,-390 32,-384 32,-384 32,-326 32,-326 32,-320 38,-314 44,-314"/>
<text text-anchor="middle" x="75" y="-384.8" font-family="Helvetica,sans-Serif" font-weight="bold" font-size="9.00">components</text>
</g>
<g id="clust5" class="cluster">
<title>cluster_src/pages</title>
<path fill="#ffffff" stroke="black" stroke-width="2" d="M44,-148C44,-148 106,-148 106,-148 112,-148 118,-154 118,-160 118,-160 118,-278 118,-278 118,-284 112,-290 106,-290 106,-290 44,-290 44,-290 38,-290 32,-284 32,-278 32,-278 32,-160 32,-160 32,-154 38,-148 44,-148"/>
<text text-anchor="middle" x="75" y="-278.8" font-family="Helvetica,sans-Serif" font-weight="bold" font-size="9.00">pages</text>
</g>
<g id="clust6" class="cluster">
<title>cluster_src/pages/post</title>
<path fill="#ffffff" stroke="black" stroke-width="2" d="M52,-212C52,-212 98,-212 98,-212 104,-212 110,-218 110,-224 110,-224 110,-252 110,-252 110,-258 104,-264 98,-264 98,-264 52,-264 52,-264 46,-264 40,-258 40,-252 40,-252 40,-224 40,-224 40,-218 46,-212 52,-212"/>
<text text-anchor="middle" x="75" y="-252.8" font-family="Helvetica,sans-Serif" font-weight="bold" font-size="9.00">post</text>
</g>
<g id="clust7" class="cluster">
<title>cluster_src/shared</title>
<path fill="#ffffff" stroke="black" stroke-width="2" d="M154,-16C154,-16 371.5,-16 371.5,-16 377.5,-16 383.5,-22 383.5,-28 383.5,-28 383.5,-436 383.5,-436 383.5,-442 377.5,-448 371.5,-448 371.5,-448 154,-448 154,-448 148,-448 142,-442 142,-436 142,-436 142,-28 142,-28 142,-22 148,-16 154,-16"/>
<text text-anchor="middle" x="262.75" y="-436.8" font-family="Helvetica,sans-Serif" font-weight="bold" font-size="9.00">shared</text>
</g>
<g id="clust8" class="cluster">
<title>cluster_src/shared/libs</title>
<path fill="#ffffff" stroke="black" stroke-width="2" d="M162,-24C162,-24 363.5,-24 363.5,-24 369.5,-24 375.5,-30 375.5,-36 375.5,-36 375.5,-410 375.5,-410 375.5,-416 369.5,-422 363.5,-422 363.5,-422 162,-422 162,-422 156,-422 150,-416 150,-410 150,-410 150,-36 150,-36 150,-30 156,-24 162,-24"/>
<text text-anchor="middle" x="262.75" y="-410.8" font-family="Helvetica,sans-Serif" font-weight="bold" font-size="9.00">libs</text>
</g>
<g id="clust9" class="cluster">
<title>cluster_src/shared/libs/chakra</title>
<path fill="#ffffff" stroke="black" stroke-width="2" d="M178,-126C178,-126 355.5,-126 355.5,-126 361.5,-126 367.5,-132 367.5,-138 367.5,-138 367.5,-294 367.5,-294 367.5,-300 361.5,-306 355.5,-306 355.5,-306 178,-306 178,-306 172,-306 166,-300 166,-294 166,-294 166,-138 166,-138 166,-132 172,-126 178,-126"/>
<text text-anchor="middle" x="266.75" y="-294.8" font-family="Helvetica,sans-Serif" font-weight="bold" font-size="9.00">chakra</text>
</g>
<g id="clust10" class="cluster">
<title>cluster_src/shared/libs/chakra/components</title>
<path fill="#ffffff" stroke="black" stroke-width="2" d="M186,-134C186,-134 347.5,-134 347.5,-134 353.5,-134 359.5,-140 359.5,-146 359.5,-146 359.5,-268 359.5,-268 359.5,-274 353.5,-280 347.5,-280 347.5,-280 186,-280 186,-280 180,-280 174,-274 174,-268 174,-268 174,-146 174,-146 174,-140 180,-134 186,-134"/>
<text text-anchor="middle" x="266.75" y="-268.8" font-family="Helvetica,sans-Serif" font-weight="bold" font-size="9.00">components</text>
</g>
<g id="clust11" class="cluster">
<title>cluster_src/shared/libs/chakra/components/Box</title>
<path fill="#ffffff" stroke="black" stroke-width="2" d="M194,-202C194,-202 339.5,-202 339.5,-202 345.5,-202 351.5,-208 351.5,-214 351.5,-214 351.5,-242 351.5,-242 351.5,-248 345.5,-254 339.5,-254 339.5,-254 194,-254 194,-254 188,-254 182,-248 182,-242 182,-242 182,-214 182,-214 182,-208 188,-202 194,-202"/>
<text text-anchor="middle" x="266.75" y="-242.8" font-family="Helvetica,sans-Serif" font-weight="bold" font-size="9.00">Box</text>
</g>
<g id="clust12" class="cluster">
<title>cluster_src/shared/libs/chakra/components/Stack</title>
<path fill="#ffffff" stroke="black" stroke-width="2" d="M194,-142C194,-142 339.5,-142 339.5,-142 345.5,-142 351.5,-148 351.5,-154 351.5,-154 351.5,-182 351.5,-182 351.5,-188 345.5,-194 339.5,-194 339.5,-194 194,-194 194,-194 188,-194 182,-188 182,-182 182,-182 182,-154 182,-154 182,-148 188,-142 194,-142"/>
<text text-anchor="middle" x="266.75" y="-182.8" font-family="Helvetica,sans-Serif" font-weight="bold" font-size="9.00">Stack</text>
</g>
<g id="clust13" class="cluster">
<title>cluster_src/shared/libs/i18n</title>
<path fill="#ffffff" stroke="black" stroke-width="2" d="M170,-32C170,-32 347.5,-32 347.5,-32 353.5,-32 359.5,-38 359.5,-44 359.5,-44 359.5,-106 359.5,-106 359.5,-112 353.5,-118 347.5,-118 347.5,-118 170,-118 170,-118 164,-118 158,-112 158,-106 158,-106 158,-44 158,-44 158,-38 164,-32 170,-32"/>
<text text-anchor="middle" x="258.75" y="-106.8" font-family="Helvetica,sans-Serif" font-weight="bold" font-size="9.00">i18n</text>
</g>
<g id="clust14" class="cluster">
<title>cluster_src/shared/libs/i18n/hooks</title>
<path fill="#ffffff" stroke="black" stroke-width="2" d="M178,-40C178,-40 256,-40 256,-40 262,-40 268,-46 268,-52 268,-52 268,-80 268,-80 268,-86 262,-92 256,-92 256,-92 178,-92 178,-92 172,-92 166,-86 166,-80 166,-80 166,-52 166,-52 166,-46 172,-40 178,-40"/>
<text text-anchor="middle" x="217" y="-80.8" font-family="Helvetica,sans-Serif" font-weight="bold" font-size="9.00">hooks</text>
</g>
<g id="clust15" class="cluster">
<title>cluster_src/shared/libs/i18n/locales</title>
<path fill="#ffffff" stroke="black" stroke-width="2" d="M293.5,-40C293.5,-40 339.5,-40 339.5,-40 345.5,-40 351.5,-46 351.5,-52 351.5,-52 351.5,-80 351.5,-80 351.5,-86 345.5,-92 339.5,-92 339.5,-92 293.5,-92 293.5,-92 287.5,-92 281.5,-86 281.5,-80 281.5,-80 281.5,-52 281.5,-52 281.5,-46 287.5,-40 293.5,-40"/>
<text text-anchor="middle" x="316.5" y="-80.8" font-family="Helvetica,sans-Serif" font-weight="bold" font-size="9.00">locales</text>
</g>
<g id="clust16" class="cluster">
<title>cluster_src/shared/libs/markdown</title>
<path fill="#ffffff" stroke="black" stroke-width="2" d="M172.5,-314C172.5,-314 261.5,-314 261.5,-314 267.5,-314 273.5,-320 273.5,-326 273.5,-326 273.5,-384 273.5,-384 273.5,-390 267.5,-396 261.5,-396 261.5,-396 172.5,-396 172.5,-396 166.5,-396 160.5,-390 160.5,-384 160.5,-384 160.5,-326 160.5,-326 160.5,-320 166.5,-314 172.5,-314"/>
<text text-anchor="middle" x="217" y="-384.8" font-family="Helvetica,sans-Serif" font-weight="bold" font-size="9.00">markdown</text>
</g>
<!-- src/features/post/components/PostPage.tsx -->
<g id="node1" class="node">
<title>src/features/post/components/PostPage.tsx</title>
<g id="a_node1"><a xlink:href="src/features/post/components/PostPage.tsx" xlink:title="no&#45;orphans">
<path fill="#ccffcc" stroke="orange" d="M104,-370C104,-370 46,-370 46,-370 43,-370 40,-367 40,-364 40,-364 40,-358 40,-358 40,-355 43,-352 46,-352 46,-352 104,-352 104,-352 107,-352 110,-355 110,-358 110,-358 110,-364 110,-364 110,-367 107,-370 104,-370"/>
<text text-anchor="start" x="48" y="-358.8" font-family="Helvetica,sans-Serif" font-size="9.00" fill="orange">PostPage.tsx</text>
</a>
</g>
</g>
<!-- src/features/post/components/layout.tsx -->
<g id="node2" class="node">
<title>src/features/post/components/layout.tsx</title>
<g id="a_node2"><a xlink:href="src/features/post/components/layout.tsx" xlink:title="no&#45;orphans">
<path fill="#ccffcc" stroke="orange" d="M96.5,-340C96.5,-340 53.5,-340 53.5,-340 50.5,-340 47.5,-337 47.5,-334 47.5,-334 47.5,-328 47.5,-328 47.5,-325 50.5,-322 53.5,-322 53.5,-322 96.5,-322 96.5,-322 99.5,-322 102.5,-325 102.5,-328 102.5,-328 102.5,-334 102.5,-334 102.5,-337 99.5,-340 96.5,-340"/>
<text text-anchor="start" x="55.5" y="-328.8" font-family="Helvetica,sans-Serif" font-size="9.00" fill="orange">layout.tsx</text>
</a>
</g>
</g>
<!-- src/pages/_app.tsx -->
<g id="node3" class="node">
<title>src/pages/_app.tsx</title>
<g id="a_node3"><a xlink:href="src/pages/_app.tsx" xlink:title="no&#45;orphans">
<path fill="#ccffcc" stroke="orange" d="M96,-204C96,-204 54,-204 54,-204 51,-204 48,-201 48,-198 48,-198 48,-192 48,-192 48,-189 51,-186 54,-186 54,-186 96,-186 96,-186 99,-186 102,-189 102,-192 102,-192 102,-198 102,-198 102,-201 99,-204 96,-204"/>
<text text-anchor="start" x="57.5" y="-192.8" font-family="Helvetica,sans-Serif" font-size="9.00" fill="orange">_app.tsx</text>
</a>
</g>
</g>
<!-- src/pages/index.tsx -->
<g id="node4" class="node">
<title>src/pages/index.tsx</title>
<g id="a_node4"><a xlink:href="src/pages/index.tsx" xlink:title="index.tsx">
<path fill="#bbfeff" stroke="black" d="M96,-174C96,-174 54,-174 54,-174 51,-174 48,-171 48,-168 48,-168 48,-162 48,-162 48,-159 51,-156 54,-156 54,-156 96,-156 96,-156 99,-156 102,-159 102,-162 102,-162 102,-168 102,-168 102,-171 99,-174 96,-174"/>
<text text-anchor="start" x="56.5" y="-162.8" font-family="Helvetica,sans-Serif" font-size="9.00">index.tsx</text>
</a>
</g>
</g>
<!-- src/shared/libs/chakra/components/Box/index.tsx -->
<g id="node5" class="node">
<title>src/shared/libs/chakra/components/Box/index.tsx</title>
<g id="a_node5"><a xlink:href="src/shared/libs/chakra/components/Box/index.tsx" xlink:title="index.tsx">
<path fill="#bbfeff" stroke="black" d="M238,-228C238,-228 196,-228 196,-228 193,-228 190,-225 190,-222 190,-222 190,-216 190,-216 190,-213 193,-210 196,-210 196,-210 238,-210 238,-210 241,-210 244,-213 244,-216 244,-216 244,-222 244,-222 244,-225 241,-228 238,-228"/>
<text text-anchor="start" x="198.5" y="-216.8" font-family="Helvetica,sans-Serif" font-size="9.00">index.tsx</text>
</a>
</g>
</g>
<!-- src/pages/index.tsx&#45;&gt;src/shared/libs/chakra/components/Box/index.tsx -->
<g id="edge1" class="edge">
<title>src/pages/index.tsx&#45;&gt;src/shared/libs/chakra/components/Box/index.tsx</title>
<path fill="none" stroke="#000000" stroke-width="2" stroke-opacity="0.200000" d="M102.19,-166.9C113.03,-168.83 125.11,-172.63 134,-180 140.43,-185.33 135.67,-191.56 142,-197 153.65,-207.01 169.7,-212.47 183.88,-215.44"/>
<polygon fill="#000000" fill-opacity="0.200000" stroke="#000000" stroke-width="2" stroke-opacity="0.200000" points="183.54,-217.52 189.82,-216.57 184.32,-213.39 183.54,-217.52"/>
</g>
<!-- src/shared/libs/i18n/hooks/useTranslation.ts -->
<g id="node6" class="node">
<title>src/shared/libs/i18n/hooks/useTranslation.ts</title>
<g id="a_node6"><a xlink:href="src/shared/libs/i18n/hooks/useTranslation.ts" xlink:title="useTranslation.ts">
<path fill="#ddfeff" stroke="black" d="M254,-66C254,-66 180,-66 180,-66 177,-66 174,-63 174,-60 174,-60 174,-54 174,-54 174,-51 177,-48 180,-48 180,-48 254,-48 254,-48 257,-48 260,-51 260,-54 260,-54 260,-60 260,-60 260,-63 257,-66 254,-66"/>
<text text-anchor="start" x="182" y="-54.8" font-family="Helvetica,sans-Serif" font-size="9.00">useTranslation.ts</text>
</a>
</g>
</g>
<!-- src/pages/index.tsx&#45;&gt;src/shared/libs/i18n/hooks/useTranslation.ts -->
<g id="edge2" class="edge">
<title>src/pages/index.tsx&#45;&gt;src/shared/libs/i18n/hooks/useTranslation.ts</title>
<path fill="none" stroke="#000000" stroke-width="2" stroke-opacity="0.200000" d="M87.94,-155.79C112.84,-136.58 170.38,-92.19 199.08,-70.05"/>
<polygon fill="#000000" fill-opacity="0.200000" stroke="#000000" stroke-width="2" stroke-opacity="0.200000" points="200.63,-71.51 204.09,-66.18 198.06,-68.19 200.63,-71.51"/>
</g>
<!-- src/shared/libs/markdown/api.ts -->
<g id="node7" class="node">
<title>src/shared/libs/markdown/api.ts</title>
<g id="a_node7"><a xlink:href="src/shared/libs/markdown/api.ts" xlink:title="api.ts">
<path fill="#ddfeff" stroke="black" d="M238,-340C238,-340 196,-340 196,-340 193,-340 190,-337 190,-334 190,-334 190,-328 190,-328 190,-325 193,-322 196,-322 196,-322 238,-322 238,-322 241,-322 244,-325 244,-328 244,-328 244,-334 244,-334 244,-337 241,-340 238,-340"/>
<text text-anchor="start" x="206" y="-328.8" font-family="Helvetica,sans-Serif" font-size="9.00">api.ts</text>
</a>
</g>
</g>
<!-- src/pages/index.tsx&#45;&gt;src/shared/libs/markdown/api.ts -->
<g id="edge3" class="edge">
<title>src/pages/index.tsx&#45;&gt;src/shared/libs/markdown/api.ts</title>
<path fill="none" stroke="#000000" stroke-width="2" stroke-opacity="0.200000" d="M102.01,-165.35C113.48,-166.92 126.13,-170.86 134,-180 145.22,-193.04 134.6,-241.47 142,-257 154.32,-282.87 179.54,-304.94 197.09,-318.09"/>
<polygon fill="#000000" fill-opacity="0.200000" stroke="#000000" stroke-width="2" stroke-opacity="0.200000" points="196.19,-320.03 202.27,-321.87 198.67,-316.64 196.19,-320.03"/>
</g>
<!-- src/shared/libs/chakra/components/Box/Box.tsx -->
<g id="node10" class="node">
<title>src/shared/libs/chakra/components/Box/Box.tsx</title>
<g id="a_node10"><a xlink:href="src/shared/libs/chakra/components/Box/Box.tsx" xlink:title="Box.tsx">
<path fill="#bbfeff" stroke="black" d="M337.5,-228C337.5,-228 295.5,-228 295.5,-228 292.5,-228 289.5,-225 289.5,-222 289.5,-222 289.5,-216 289.5,-216 289.5,-213 292.5,-210 295.5,-210 295.5,-210 337.5,-210 337.5,-210 340.5,-210 343.5,-213 343.5,-216 343.5,-216 343.5,-222 343.5,-222 343.5,-225 340.5,-228 337.5,-228"/>
<text text-anchor="start" x="301.5" y="-216.8" font-family="Helvetica,sans-Serif" font-size="9.00">Box.tsx</text>
</a>
</g>
</g>
<!-- src/shared/libs/chakra/components/Box/index.tsx&#45;&gt;src/shared/libs/chakra/components/Box/Box.tsx -->
<g id="edge6" class="edge">
<title>src/shared/libs/chakra/components/Box/index.tsx&#45;&gt;src/shared/libs/chakra/components/Box/Box.tsx</title>
<path fill="none" stroke="#000000" stroke-width="2" stroke-opacity="0.200000" d="M244.13,-219C256.15,-219 270.53,-219 283.22,-219"/>
<polygon fill="#000000" fill-opacity="0.200000" stroke="#000000" stroke-width="2" stroke-opacity="0.200000" points="283.3,-221.1 289.3,-219 283.3,-216.9 283.3,-221.1"/>
</g>
<!-- src/shared/libs/i18n/locales/index.ts -->
<g id="node13" class="node">
<title>src/shared/libs/i18n/locales/index.ts</title>
<g id="a_node13"><a xlink:href="src/shared/libs/i18n/locales/index.ts" xlink:title="index.ts">
<path fill="#ddfeff" stroke="black" d="M337.5,-66C337.5,-66 295.5,-66 295.5,-66 292.5,-66 289.5,-63 289.5,-60 289.5,-60 289.5,-54 289.5,-54 289.5,-51 292.5,-48 295.5,-48 295.5,-48 337.5,-48 337.5,-48 340.5,-48 343.5,-51 343.5,-54 343.5,-54 343.5,-60 343.5,-60 343.5,-63 340.5,-66 337.5,-66"/>
<text text-anchor="start" x="300.5" y="-54.8" font-family="Helvetica,sans-Serif" font-size="9.00">index.ts</text>
</a>
</g>
</g>
<!-- src/shared/libs/i18n/hooks/useTranslation.ts&#45;&gt;src/shared/libs/i18n/locales/index.ts -->
<g id="edge8" class="edge">
<title>src/shared/libs/i18n/hooks/useTranslation.ts&#45;&gt;src/shared/libs/i18n/locales/index.ts</title>
<path fill="none" stroke="#000000" stroke-width="2" stroke-opacity="0.200000" d="M260.2,-57C267.92,-57 275.86,-57 283.23,-57"/>
<polygon fill="#000000" fill-opacity="0.200000" stroke="#000000" stroke-width="2" stroke-opacity="0.200000" points="283.28,-59.1 289.28,-57 283.28,-54.9 283.28,-59.1"/>
</g>
<!-- src/pages/post/[slug].tsx -->
<g id="node8" class="node">
<title>src/pages/post/[slug].tsx</title>
<g id="a_node8"><a xlink:href="src/pages/post/[slug].tsx" xlink:title="[slug].tsx">
<path fill="#bbfeff" stroke="black" d="M96,-238C96,-238 54,-238 54,-238 51,-238 48,-235 48,-232 48,-232 48,-226 48,-226 48,-223 51,-220 54,-220 54,-220 96,-220 96,-220 99,-220 102,-223 102,-226 102,-226 102,-232 102,-232 102,-235 99,-238 96,-238"/>
<text text-anchor="start" x="57" y="-226.8" font-family="Helvetica,sans-Serif" font-size="9.00">[slug].tsx</text>
</a>
</g>
</g>
<!-- src/pages/post/[slug].tsx&#45;&gt;src/shared/libs/markdown/api.ts -->
<g id="edge4" class="edge">
<title>src/pages/post/[slug].tsx&#45;&gt;src/shared/libs/markdown/api.ts</title>
<path fill="none" stroke="#000000" stroke-width="2" stroke-opacity="0.200000" d="M88.42,-238.05C113.37,-256.23 169.62,-297.21 198.37,-318.15"/>
<polygon fill="#000000" fill-opacity="0.200000" stroke="#000000" stroke-width="2" stroke-opacity="0.200000" points="197.32,-319.99 203.4,-321.82 199.79,-316.59 197.32,-319.99"/>
</g>
<!-- src/shared/libs/markdown/markdownToHtml.ts -->
<g id="node9" class="node">
<title>src/shared/libs/markdown/markdownToHtml.ts</title>
<g id="a_node9"><a xlink:href="src/shared/libs/markdown/markdownToHtml.ts" xlink:title="markdownToHtml.ts">
<path fill="#ddfeff" stroke="black" d="M259.5,-370C259.5,-370 174.5,-370 174.5,-370 171.5,-370 168.5,-367 168.5,-364 168.5,-364 168.5,-358 168.5,-358 168.5,-355 171.5,-352 174.5,-352 174.5,-352 259.5,-352 259.5,-352 262.5,-352 265.5,-355 265.5,-358 265.5,-358 265.5,-364 265.5,-364 265.5,-367 262.5,-370 259.5,-370"/>
<text text-anchor="start" x="176.5" y="-358.8" font-family="Helvetica,sans-Serif" font-size="9.00">markdownToHtml.ts</text>
</a>
</g>
</g>
<!-- src/pages/post/[slug].tsx&#45;&gt;src/shared/libs/markdown/markdownToHtml.ts -->
<g id="edge5" class="edge">
<title>src/pages/post/[slug].tsx&#45;&gt;src/shared/libs/markdown/markdownToHtml.ts</title>
<path fill="none" stroke="#000000" stroke-width="2" stroke-opacity="0.200000" d="M84.49,-238.33C97.2,-252.8 121.05,-282.02 134,-311 140.51,-325.57 130.58,-334.86 142,-346 147.68,-351.54 154.82,-355.3 162.4,-357.81"/>
<polygon fill="#000000" fill-opacity="0.200000" stroke="#000000" stroke-width="2" stroke-opacity="0.200000" points="161.92,-359.86 168.27,-359.5 163.08,-355.83 161.92,-359.86"/>
</g>
<!-- src/shared/libs/chakra/components/Stack/Stack.tsx -->
<g id="node11" class="node">
<title>src/shared/libs/chakra/components/Stack/Stack.tsx</title>
<g id="a_node11"><a xlink:href="src/shared/libs/chakra/components/Stack/Stack.tsx" xlink:title="Stack.tsx">
<path fill="#bbfeff" stroke="black" d="M337.5,-168C337.5,-168 295.5,-168 295.5,-168 292.5,-168 289.5,-165 289.5,-162 289.5,-162 289.5,-156 289.5,-156 289.5,-153 292.5,-150 295.5,-150 295.5,-150 337.5,-150 337.5,-150 340.5,-150 343.5,-153 343.5,-156 343.5,-156 343.5,-162 343.5,-162 343.5,-165 340.5,-168 337.5,-168"/>
<text text-anchor="start" x="298" y="-156.8" font-family="Helvetica,sans-Serif" font-size="9.00">Stack.tsx</text>
</a>
</g>
</g>
<!-- src/shared/libs/chakra/components/Stack/index.tsx -->
<g id="node12" class="node">
<title>src/shared/libs/chakra/components/Stack/index.tsx</title>
<g id="a_node12"><a xlink:href="src/shared/libs/chakra/components/Stack/index.tsx" xlink:title="index.tsx">
<path fill="#bbfeff" stroke="black" d="M238,-168C238,-168 196,-168 196,-168 193,-168 190,-165 190,-162 190,-162 190,-156 190,-156 190,-153 193,-150 196,-150 196,-150 238,-150 238,-150 241,-150 244,-153 244,-156 244,-156 244,-162 244,-162 244,-165 241,-168 238,-168"/>
<text text-anchor="start" x="198.5" y="-156.8" font-family="Helvetica,sans-Serif" font-size="9.00">index.tsx</text>
</a>
</g>
</g>
<!-- src/shared/libs/chakra/components/Stack/index.tsx&#45;&gt;src/shared/libs/chakra/components/Stack/Stack.tsx -->
<g id="edge7" class="edge">
<title>src/shared/libs/chakra/components/Stack/index.tsx&#45;&gt;src/shared/libs/chakra/components/Stack/Stack.tsx</title>
<path fill="none" stroke="#000000" stroke-width="2" stroke-opacity="0.200000" d="M244.13,-159C256.15,-159 270.53,-159 283.22,-159"/>
<polygon fill="#000000" fill-opacity="0.200000" stroke="#000000" stroke-width="2" stroke-opacity="0.200000" points="283.3,-161.1 289.3,-159 283.3,-156.9 283.3,-161.1"/>
</g>
</g>
</svg>
