<?xml version="1.0" encoding="UTF-8" standalone="no"?>
<!DOCTYPE svg PUBLIC "-//W3C//DTD SVG 1.1//EN"
 "http://www.w3.org/Graphics/SVG/1.1/DTD/svg11.dtd">
<!-- Generated by graphviz version 5.0.1 (20220820.1526)
 -->
<!-- Title: dependency&#45;cruiser output Pages: 1 -->
<svg width="1216pt" height="901pt"
 viewBox="0.00 0.00 1216.00 901.04" xmlns="http://www.w3.org/2000/svg" xmlns:xlink="http://www.w3.org/1999/xlink">
<g id="graph0" class="graph" transform="scale(1 1) rotate(0) translate(4 897.04)">
<title>dependency&#45;cruiser output</title>
<polygon fill="white" stroke="none" points="-4,4 -4,-897.04 1212,-897.04 1212,4 -4,4"/>
<g id="clust1" class="cluster">
<title>cluster_src</title>
<path fill="#ffffff" stroke="black" stroke-width="2" d="M20,-9.04C20,-9.04 1188,-9.04 1188,-9.04 1194,-9.04 1200,-15.04 1200,-21.04 1200,-21.04 1200,-873.04 1200,-873.04 1200,-879.04 1194,-885.04 1188,-885.04 1188,-885.04 20,-885.04 20,-885.04 14,-885.04 8,-879.04 8,-873.04 8,-873.04 8,-21.04 8,-21.04 8,-15.04 14,-9.04 20,-9.04"/>
<text text-anchor="middle" x="604" y="-873.84" font-family="Helvetica,sans-Serif" font-weight="bold" font-size="9.00">src</text>
</g>
<g id="clust2" class="cluster">
<title>cluster_src/features</title>
<path fill="#ffffff" stroke="black" stroke-width="2" d="M127,-409.04C127,-409.04 452,-409.04 452,-409.04 458,-409.04 464,-415.04 464,-421.04 464,-421.04 464,-675.04 464,-675.04 464,-681.04 458,-687.04 452,-687.04 452,-687.04 127,-687.04 127,-687.04 121,-687.04 115,-681.04 115,-675.04 115,-675.04 115,-421.04 115,-421.04 115,-415.04 121,-409.04 127,-409.04"/>
<text text-anchor="middle" x="289.5" y="-675.84" font-family="Helvetica,sans-Serif" font-weight="bold" font-size="9.00">features</text>
</g>
<g id="clust3" class="cluster">
<title>cluster_src/features/home</title>
<path fill="#ffffff" stroke="black" stroke-width="2" d="M135,-417.04C135,-417.04 247,-417.04 247,-417.04 253,-417.04 259,-423.04 259,-429.04 259,-429.04 259,-521.04 259,-521.04 259,-527.04 253,-533.04 247,-533.04 247,-533.04 135,-533.04 135,-533.04 129,-533.04 123,-527.04 123,-521.04 123,-521.04 123,-429.04 123,-429.04 123,-423.04 129,-417.04 135,-417.04"/>
<text text-anchor="middle" x="191" y="-521.84" font-family="Helvetica,sans-Serif" font-weight="bold" font-size="9.00">home</text>
</g>
<g id="clust4" class="cluster">
<title>cluster_src/features/home/components</title>
<path fill="#ffffff" stroke="black" stroke-width="2" d="M143,-425.04C143,-425.04 239,-425.04 239,-425.04 245,-425.04 251,-431.04 251,-437.04 251,-437.04 251,-495.04 251,-495.04 251,-501.04 245,-507.04 239,-507.04 239,-507.04 143,-507.04 143,-507.04 137,-507.04 131,-501.04 131,-495.04 131,-495.04 131,-437.04 131,-437.04 131,-431.04 137,-425.04 143,-425.04"/>
<text text-anchor="middle" x="191" y="-495.84" font-family="Helvetica,sans-Serif" font-weight="bold" font-size="9.00">components</text>
</g>
<g id="clust5" class="cluster">
<title>cluster_src/features/post</title>
<path fill="#ffffff" stroke="black" stroke-width="2" d="M138,-541.04C138,-541.04 444,-541.04 444,-541.04 450,-541.04 456,-547.04 456,-553.04 456,-553.04 456,-649.04 456,-649.04 456,-655.04 450,-661.04 444,-661.04 444,-661.04 138,-661.04 138,-661.04 132,-661.04 126,-655.04 126,-649.04 126,-649.04 126,-553.04 126,-553.04 126,-547.04 132,-541.04 138,-541.04"/>
<text text-anchor="middle" x="291" y="-649.84" font-family="Helvetica,sans-Serif" font-weight="bold" font-size="9.00">post</text>
</g>
<g id="clust6" class="cluster">
<title>cluster_src/features/post/components</title>
<path fill="#ffffff" stroke="black" stroke-width="2" d="M146,-549.04C146,-549.04 436,-549.04 436,-549.04 442,-549.04 448,-555.04 448,-561.04 448,-561.04 448,-623.04 448,-623.04 448,-629.04 442,-635.04 436,-635.04 436,-635.04 146,-635.04 146,-635.04 140,-635.04 134,-629.04 134,-623.04 134,-623.04 134,-561.04 134,-561.04 134,-555.04 140,-549.04 146,-549.04"/>
<text text-anchor="middle" x="291" y="-623.84" font-family="Helvetica,sans-Serif" font-weight="bold" font-size="9.00">components</text>
</g>
<g id="clust7" class="cluster">
<title>cluster_src/features/post/components/Content</title>
<path fill="#ffffff" stroke="black" stroke-width="2" d="M295,-557.04C295,-557.04 428,-557.04 428,-557.04 434,-557.04 440,-563.04 440,-569.04 440,-569.04 440,-597.04 440,-597.04 440,-603.04 434,-609.04 428,-609.04 428,-609.04 295,-609.04 295,-609.04 289,-609.04 283,-603.04 283,-597.04 283,-597.04 283,-569.04 283,-569.04 283,-563.04 289,-557.04 295,-557.04"/>
<text text-anchor="middle" x="361.5" y="-597.84" font-family="Helvetica,sans-Serif" font-weight="bold" font-size="9.00">Content</text>
</g>
<g id="clust8" class="cluster">
<title>cluster_src/libs</title>
<path fill="#ffffff" stroke="black" stroke-width="2" d="M652,-33.04C652,-33.04 1180,-33.04 1180,-33.04 1186,-33.04 1192,-39.04 1192,-45.04 1192,-45.04 1192,-847.04 1192,-847.04 1192,-853.04 1186,-859.04 1180,-859.04 1180,-859.04 652,-859.04 652,-859.04 646,-859.04 640,-853.04 640,-847.04 640,-847.04 640,-45.04 640,-45.04 640,-39.04 646,-33.04 652,-33.04"/>
<text text-anchor="middle" x="916" y="-847.84" font-family="Helvetica,sans-Serif" font-weight="bold" font-size="9.00">libs</text>
</g>
<g id="clust20" class="cluster">
<title>cluster_src/libs/markdown</title>
<path fill="#ffffff" stroke="black" stroke-width="2" d="M660,-41.04C660,-41.04 749,-41.04 749,-41.04 755,-41.04 761,-47.04 761,-53.04 761,-53.04 761,-111.04 761,-111.04 761,-117.04 755,-123.04 749,-123.04 749,-123.04 660,-123.04 660,-123.04 654,-123.04 648,-117.04 648,-111.04 648,-111.04 648,-53.04 648,-53.04 648,-47.04 654,-41.04 660,-41.04"/>
<text text-anchor="middle" x="704.5" y="-111.84" font-family="Helvetica,sans-Serif" font-weight="bold" font-size="9.00">markdown</text>
</g>
<g id="clust9" class="cluster">
<title>cluster_src/libs/chakra</title>
<path fill="#ffffff" stroke="black" stroke-width="2" d="M908,-413.04C908,-413.04 1172,-413.04 1172,-413.04 1178,-413.04 1184,-419.04 1184,-425.04 1184,-425.04 1184,-821.04 1184,-821.04 1184,-827.04 1178,-833.04 1172,-833.04 1172,-833.04 908,-833.04 908,-833.04 902,-833.04 896,-827.04 896,-821.04 896,-821.04 896,-425.04 896,-425.04 896,-419.04 902,-413.04 908,-413.04"/>
<text text-anchor="middle" x="1040" y="-821.84" font-family="Helvetica,sans-Serif" font-weight="bold" font-size="9.00">chakra</text>
</g>
<g id="clust16" class="cluster">
<title>cluster_src/libs/chakra/theme</title>
<path fill="#ffffff" stroke="black" stroke-width="2" d="M1035,-421.04C1035,-421.04 1081,-421.04 1081,-421.04 1087,-421.04 1093,-427.04 1093,-433.04 1093,-433.04 1093,-461.04 1093,-461.04 1093,-467.04 1087,-473.04 1081,-473.04 1081,-473.04 1035,-473.04 1035,-473.04 1029,-473.04 1023,-467.04 1023,-461.04 1023,-461.04 1023,-433.04 1023,-433.04 1023,-427.04 1029,-421.04 1035,-421.04"/>
<text text-anchor="middle" x="1058" y="-461.84" font-family="Helvetica,sans-Serif" font-weight="bold" font-size="9.00">theme</text>
</g>
<g id="clust10" class="cluster">
<title>cluster_src/libs/chakra/components</title>
<path fill="#ffffff" stroke="black" stroke-width="2" d="M1027,-481.04C1027,-481.04 1164,-481.04 1164,-481.04 1170,-481.04 1176,-487.04 1176,-493.04 1176,-493.04 1176,-795.04 1176,-795.04 1176,-801.04 1170,-807.04 1164,-807.04 1164,-807.04 1027,-807.04 1027,-807.04 1021,-807.04 1015,-801.04 1015,-795.04 1015,-795.04 1015,-493.04 1015,-493.04 1015,-487.04 1021,-481.04 1027,-481.04"/>
<text text-anchor="middle" x="1095.5" y="-795.84" font-family="Helvetica,sans-Serif" font-weight="bold" font-size="9.00">components</text>
</g>
<g id="clust15" class="cluster">
<title>cluster_src/libs/chakra/components/Stack</title>
<path fill="#ffffff" stroke="black" stroke-width="2" d="M1035,-549.04C1035,-549.04 1153.5,-549.04 1153.5,-549.04 1159.5,-549.04 1165.5,-555.04 1165.5,-561.04 1165.5,-561.04 1165.5,-589.04 1165.5,-589.04 1165.5,-595.04 1159.5,-601.04 1153.5,-601.04 1153.5,-601.04 1035,-601.04 1035,-601.04 1029,-601.04 1023,-595.04 1023,-589.04 1023,-589.04 1023,-561.04 1023,-561.04 1023,-555.04 1029,-549.04 1035,-549.04"/>
<text text-anchor="middle" x="1094.25" y="-589.84" font-family="Helvetica,sans-Serif" font-weight="bold" font-size="9.00">Stack</text>
</g>
<g id="clust11" class="cluster">
<title>cluster_src/libs/chakra/components/Box</title>
<path fill="#ffffff" stroke="black" stroke-width="2" d="M1035,-489.04C1035,-489.04 1153.5,-489.04 1153.5,-489.04 1159.5,-489.04 1165.5,-495.04 1165.5,-501.04 1165.5,-501.04 1165.5,-529.04 1165.5,-529.04 1165.5,-535.04 1159.5,-541.04 1153.5,-541.04 1153.5,-541.04 1035,-541.04 1035,-541.04 1029,-541.04 1023,-535.04 1023,-529.04 1023,-529.04 1023,-501.04 1023,-501.04 1023,-495.04 1029,-489.04 1035,-489.04"/>
<text text-anchor="middle" x="1094.25" y="-529.84" font-family="Helvetica,sans-Serif" font-weight="bold" font-size="9.00">Box</text>
</g>
<g id="clust12" class="cluster">
<title>cluster_src/libs/chakra/components/Flex</title>
<path fill="#ffffff" stroke="black" stroke-width="2" d="M1035,-729.04C1035,-729.04 1153.5,-729.04 1153.5,-729.04 1159.5,-729.04 1165.5,-735.04 1165.5,-741.04 1165.5,-741.04 1165.5,-769.04 1165.5,-769.04 1165.5,-775.04 1159.5,-781.04 1153.5,-781.04 1153.5,-781.04 1035,-781.04 1035,-781.04 1029,-781.04 1023,-775.04 1023,-769.04 1023,-769.04 1023,-741.04 1023,-741.04 1023,-735.04 1029,-729.04 1035,-729.04"/>
<text text-anchor="middle" x="1094.25" y="-769.84" font-family="Helvetica,sans-Serif" font-weight="bold" font-size="9.00">Flex</text>
</g>
<g id="clust13" class="cluster">
<title>cluster_src/libs/chakra/components/Grid</title>
<path fill="#ffffff" stroke="black" stroke-width="2" d="M1035,-669.04C1035,-669.04 1153.5,-669.04 1153.5,-669.04 1159.5,-669.04 1165.5,-675.04 1165.5,-681.04 1165.5,-681.04 1165.5,-709.04 1165.5,-709.04 1165.5,-715.04 1159.5,-721.04 1153.5,-721.04 1153.5,-721.04 1035,-721.04 1035,-721.04 1029,-721.04 1023,-715.04 1023,-709.04 1023,-709.04 1023,-681.04 1023,-681.04 1023,-675.04 1029,-669.04 1035,-669.04"/>
<text text-anchor="middle" x="1094.25" y="-709.84" font-family="Helvetica,sans-Serif" font-weight="bold" font-size="9.00">Grid</text>
</g>
<g id="clust14" class="cluster">
<title>cluster_src/libs/chakra/components/Spacer</title>
<path fill="#ffffff" stroke="black" stroke-width="2" d="M1035,-609.04C1035,-609.04 1156,-609.04 1156,-609.04 1162,-609.04 1168,-615.04 1168,-621.04 1168,-621.04 1168,-649.04 1168,-649.04 1168,-655.04 1162,-661.04 1156,-661.04 1156,-661.04 1035,-661.04 1035,-661.04 1029,-661.04 1023,-655.04 1023,-649.04 1023,-649.04 1023,-621.04 1023,-621.04 1023,-615.04 1029,-609.04 1035,-609.04"/>
<text text-anchor="middle" x="1095.5" y="-649.84" font-family="Helvetica,sans-Serif" font-weight="bold" font-size="9.00">Spacer</text>
</g>
<g id="clust17" class="cluster">
<title>cluster_src/libs/i18n</title>
<path fill="#ffffff" stroke="black" stroke-width="2" d="M681.5,-131.04C681.5,-131.04 962,-131.04 962,-131.04 968,-131.04 974,-137.04 974,-143.04 974,-143.04 974,-205.04 974,-205.04 974,-211.04 968,-217.04 962,-217.04 962,-217.04 681.5,-217.04 681.5,-217.04 675.5,-217.04 669.5,-211.04 669.5,-205.04 669.5,-205.04 669.5,-143.04 669.5,-143.04 669.5,-137.04 675.5,-131.04 681.5,-131.04"/>
<text text-anchor="middle" x="821.75" y="-205.84" font-family="Helvetica,sans-Serif" font-weight="bold" font-size="9.00">i18n</text>
</g>
<g id="clust18" class="cluster">
<title>cluster_src/libs/i18n/hooks</title>
<path fill="#ffffff" stroke="black" stroke-width="2" d="M781,-139.04C781,-139.04 859,-139.04 859,-139.04 865,-139.04 871,-145.04 871,-151.04 871,-151.04 871,-179.04 871,-179.04 871,-185.04 865,-191.04 859,-191.04 859,-191.04 781,-191.04 781,-191.04 775,-191.04 769,-185.04 769,-179.04 769,-179.04 769,-151.04 769,-151.04 769,-145.04 775,-139.04 781,-139.04"/>
<text text-anchor="middle" x="820" y="-179.84" font-family="Helvetica,sans-Serif" font-weight="bold" font-size="9.00">hooks</text>
</g>
<g id="clust19" class="cluster">
<title>cluster_src/libs/i18n/locales</title>
<path fill="#ffffff" stroke="black" stroke-width="2" d="M908,-139.04C908,-139.04 954,-139.04 954,-139.04 960,-139.04 966,-145.04 966,-151.04 966,-151.04 966,-179.04 966,-179.04 966,-185.04 960,-191.04 954,-191.04 954,-191.04 908,-191.04 908,-191.04 902,-191.04 896,-185.04 896,-179.04 896,-179.04 896,-151.04 896,-151.04 896,-145.04 902,-139.04 908,-139.04"/>
<text text-anchor="middle" x="931" y="-179.84" font-family="Helvetica,sans-Serif" font-weight="bold" font-size="9.00">locales</text>
</g>
<g id="clust21" class="cluster">
<title>cluster_src/libs/next</title>
<path fill="#ffffff" stroke="black" stroke-width="2" d="M681.5,-225.04C681.5,-225.04 995,-225.04 995,-225.04 1001,-225.04 1007,-231.04 1007,-237.04 1007,-237.04 1007,-393.04 1007,-393.04 1007,-399.04 1001,-405.04 995,-405.04 995,-405.04 681.5,-405.04 681.5,-405.04 675.5,-405.04 669.5,-399.04 669.5,-393.04 669.5,-393.04 669.5,-237.04 669.5,-237.04 669.5,-231.04 675.5,-225.04 681.5,-225.04"/>
<text text-anchor="middle" x="838.25" y="-393.84" font-family="Helvetica,sans-Serif" font-weight="bold" font-size="9.00">next</text>
</g>
<g id="clust22" class="cluster">
<title>cluster_src/libs/next/components</title>
<path fill="#ffffff" stroke="black" stroke-width="2" d="M789,-233.04C789,-233.04 987,-233.04 987,-233.04 993,-233.04 999,-239.04 999,-245.04 999,-245.04 999,-367.04 999,-367.04 999,-373.04 993,-379.04 987,-379.04 987,-379.04 789,-379.04 789,-379.04 783,-379.04 777,-373.04 777,-367.04 777,-367.04 777,-245.04 777,-245.04 777,-239.04 783,-233.04 789,-233.04"/>
<text text-anchor="middle" x="888" y="-367.84" font-family="Helvetica,sans-Serif" font-weight="bold" font-size="9.00">components</text>
</g>
<g id="clust23" class="cluster">
<title>cluster_src/libs/next/components/ChakraNextImage</title>
<path fill="#ffffff" stroke="black" stroke-width="2" d="M797,-301.04C797,-301.04 979,-301.04 979,-301.04 985,-301.04 991,-307.04 991,-313.04 991,-313.04 991,-341.04 991,-341.04 991,-347.04 985,-353.04 979,-353.04 979,-353.04 797,-353.04 797,-353.04 791,-353.04 785,-347.04 785,-341.04 785,-341.04 785,-313.04 785,-313.04 785,-307.04 791,-301.04 797,-301.04"/>
<text text-anchor="middle" x="888" y="-341.84" font-family="Helvetica,sans-Serif" font-weight="bold" font-size="9.00">ChakraNextImage</text>
</g>
<g id="clust24" class="cluster">
<title>cluster_src/libs/next/components/ChakraNextLink</title>
<path fill="#ffffff" stroke="black" stroke-width="2" d="M797,-241.04C797,-241.04 975,-241.04 975,-241.04 981,-241.04 987,-247.04 987,-253.04 987,-253.04 987,-281.04 987,-281.04 987,-287.04 981,-293.04 975,-293.04 975,-293.04 797,-293.04 797,-293.04 791,-293.04 785,-287.04 785,-281.04 785,-281.04 785,-253.04 785,-253.04 785,-247.04 791,-241.04 797,-241.04"/>
<text text-anchor="middle" x="886" y="-281.84" font-family="Helvetica,sans-Serif" font-weight="bold" font-size="9.00">ChakraNextLink</text>
</g>
<g id="clust25" class="cluster">
<title>cluster_src/pages</title>
<path fill="#ffffff" stroke="black" stroke-width="2" d="M28,-17.04C28,-17.04 214,-17.04 214,-17.04 220,-17.04 226,-23.04 226,-29.04 226,-29.04 226,-177.04 226,-177.04 226,-183.04 220,-189.04 214,-189.04 214,-189.04 28,-189.04 28,-189.04 22,-189.04 16,-183.04 16,-177.04 16,-177.04 16,-29.04 16,-29.04 16,-23.04 22,-17.04 28,-17.04"/>
<text text-anchor="middle" x="121" y="-177.84" font-family="Helvetica,sans-Serif" font-weight="bold" font-size="9.00">pages</text>
</g>
<g id="clust26" class="cluster">
<title>cluster_src/pages/home</title>
<path fill="#ffffff" stroke="black" stroke-width="2" d="M36,-51.04C36,-51.04 95,-51.04 95,-51.04 101,-51.04 107,-57.04 107,-63.04 107,-63.04 107,-91.04 107,-91.04 107,-97.04 101,-103.04 95,-103.04 95,-103.04 36,-103.04 36,-103.04 30,-103.04 24,-97.04 24,-91.04 24,-91.04 24,-63.04 24,-63.04 24,-57.04 30,-51.04 36,-51.04"/>
<text text-anchor="middle" x="65.5" y="-91.84" font-family="Helvetica,sans-Serif" font-weight="bold" font-size="9.00">home</text>
</g>
<g id="clust27" class="cluster">
<title>cluster_src/pages/post</title>
<path fill="#ffffff" stroke="black" stroke-width="2" d="M42.5,-111.04C42.5,-111.04 88.5,-111.04 88.5,-111.04 94.5,-111.04 100.5,-117.04 100.5,-123.04 100.5,-123.04 100.5,-151.04 100.5,-151.04 100.5,-157.04 94.5,-163.04 88.5,-163.04 88.5,-163.04 42.5,-163.04 42.5,-163.04 36.5,-163.04 30.5,-157.04 30.5,-151.04 30.5,-151.04 30.5,-123.04 30.5,-123.04 30.5,-117.04 36.5,-111.04 42.5,-111.04"/>
<text text-anchor="middle" x="65.5" y="-151.84" font-family="Helvetica,sans-Serif" font-weight="bold" font-size="9.00">post</text>
</g>
<g id="clust28" class="cluster">
<title>cluster_src/shared</title>
<path fill="#ffffff" stroke="black" stroke-width="2" d="M279,-101.04C279,-101.04 620,-101.04 620,-101.04 626,-101.04 632,-107.04 632,-113.04 632,-113.04 632,-389.04 632,-389.04 632,-395.04 626,-401.04 620,-401.04 620,-401.04 279,-401.04 279,-401.04 273,-401.04 267,-395.04 267,-389.04 267,-389.04 267,-113.04 267,-113.04 267,-107.04 273,-101.04 279,-101.04"/>
<text text-anchor="middle" x="449.5" y="-389.84" font-family="Helvetica,sans-Serif" font-weight="bold" font-size="9.00">shared</text>
</g>
<g id="clust29" class="cluster">
<title>cluster_src/shared/components</title>
<path fill="#ffffff" stroke="black" stroke-width="2" d="M287,-169.04C287,-169.04 612,-169.04 612,-169.04 618,-169.04 624,-175.04 624,-181.04 624,-181.04 624,-303.04 624,-303.04 624,-309.04 618,-315.04 612,-315.04 612,-315.04 287,-315.04 287,-315.04 281,-315.04 275,-309.04 275,-303.04 275,-303.04 275,-181.04 275,-181.04 275,-175.04 281,-169.04 287,-169.04"/>
<text text-anchor="middle" x="449.5" y="-303.84" font-family="Helvetica,sans-Serif" font-weight="bold" font-size="9.00">components</text>
</g>
<g id="clust31" class="cluster">
<title>cluster_src/shared/components/Footer</title>
<path fill="#ffffff" stroke="black" stroke-width="2" d="M484,-177.04C484,-177.04 601.5,-177.04 601.5,-177.04 607.5,-177.04 613.5,-183.04 613.5,-189.04 613.5,-189.04 613.5,-217.04 613.5,-217.04 613.5,-223.04 607.5,-229.04 601.5,-229.04 601.5,-229.04 484,-229.04 484,-229.04 478,-229.04 472,-223.04 472,-217.04 472,-217.04 472,-189.04 472,-189.04 472,-183.04 478,-177.04 484,-177.04"/>
<text text-anchor="middle" x="542.75" y="-217.84" font-family="Helvetica,sans-Serif" font-weight="bold" font-size="9.00">Footer</text>
</g>
<g id="clust32" class="cluster">
<title>cluster_src/shared/components/Header</title>
<path fill="#ffffff" stroke="black" stroke-width="2" d="M484,-237.04C484,-237.04 604,-237.04 604,-237.04 610,-237.04 616,-243.04 616,-249.04 616,-249.04 616,-277.04 616,-277.04 616,-283.04 610,-289.04 604,-289.04 604,-289.04 484,-289.04 484,-289.04 478,-289.04 472,-283.04 472,-277.04 472,-277.04 472,-249.04 472,-249.04 472,-243.04 478,-237.04 484,-237.04"/>
<text text-anchor="middle" x="544" y="-277.84" font-family="Helvetica,sans-Serif" font-weight="bold" font-size="9.00">Header</text>
</g>
<g id="clust30" class="cluster">
<title>cluster_src/shared/components/BasicLayout</title>
<path fill="#ffffff" stroke="black" stroke-width="2" d="M295,-177.04C295,-177.04 437,-177.04 437,-177.04 443,-177.04 449,-183.04 449,-189.04 449,-189.04 449,-217.04 449,-217.04 449,-223.04 443,-229.04 437,-229.04 437,-229.04 295,-229.04 295,-229.04 289,-229.04 283,-223.04 283,-217.04 283,-217.04 283,-189.04 283,-189.04 283,-183.04 289,-177.04 295,-177.04"/>
<text text-anchor="middle" x="366" y="-217.84" font-family="Helvetica,sans-Serif" font-weight="bold" font-size="9.00">BasicLayout</text>
</g>
<g id="clust33" class="cluster">
<title>cluster_src/shared/type</title>
<path fill="#ffffff" stroke="black" stroke-width="2" d="M295,-323.04C295,-323.04 341,-323.04 341,-323.04 347,-323.04 353,-329.04 353,-335.04 353,-335.04 353,-363.04 353,-363.04 353,-369.04 347,-375.04 341,-375.04 341,-375.04 295,-375.04 295,-375.04 289,-375.04 283,-369.04 283,-363.04 283,-363.04 283,-335.04 283,-335.04 283,-329.04 289,-323.04 295,-323.04"/>
<text text-anchor="middle" x="318" y="-363.84" font-family="Helvetica,sans-Serif" font-weight="bold" font-size="9.00">type</text>
</g>
<g id="clust34" class="cluster">
<title>cluster_src/shared/utils</title>
<path fill="#ffffff" stroke="black" stroke-width="2" d="M295,-109.04C295,-109.04 341,-109.04 341,-109.04 347,-109.04 353,-115.04 353,-121.04 353,-121.04 353,-149.04 353,-149.04 353,-155.04 347,-161.04 341,-161.04 341,-161.04 295,-161.04 295,-161.04 289,-161.04 283,-155.04 283,-149.04 283,-149.04 283,-121.04 283,-121.04 283,-115.04 289,-109.04 295,-109.04"/>
<text text-anchor="middle" x="318" y="-149.84" font-family="Helvetica,sans-Serif" font-weight="bold" font-size="9.00">utils</text>
</g>
<!-- src/features/home/components/HomePage.tsx -->
<g id="node1" class="node">
<title>src/features/home/components/HomePage.tsx</title>
<g id="a_node1"><a xlink:href="src/features/home/components/HomePage.tsx" xlink:title="HomePage.tsx">
<path fill="#bbfeff" stroke="black" d="M223.5,-481.04C223.5,-481.04 158.5,-481.04 158.5,-481.04 155.5,-481.04 152.5,-478.04 152.5,-475.04 152.5,-475.04 152.5,-469.04 152.5,-469.04 152.5,-466.04 155.5,-463.04 158.5,-463.04 158.5,-463.04 223.5,-463.04 223.5,-463.04 226.5,-463.04 229.5,-466.04 229.5,-469.04 229.5,-469.04 229.5,-475.04 229.5,-475.04 229.5,-478.04 226.5,-481.04 223.5,-481.04"/>
<text text-anchor="start" x="160.5" y="-469.84" font-family="Helvetica,sans-Serif" font-size="9.00">HomePage.tsx</text>
</a>
</g>
</g>
<!-- src/libs/chakra/index.ts -->
<g id="node2" class="node">
<title>src/libs/chakra/index.ts</title>
<g id="a_node2"><a xlink:href="src/libs/chakra/index.ts" xlink:title="index.ts">
<path fill="#ddfeff" stroke="black" d="M952,-521.04C952,-521.04 910,-521.04 910,-521.04 907,-521.04 904,-518.04 904,-515.04 904,-515.04 904,-509.04 904,-509.04 904,-506.04 907,-503.04 910,-503.04 910,-503.04 952,-503.04 952,-503.04 955,-503.04 958,-506.04 958,-509.04 958,-509.04 958,-515.04 958,-515.04 958,-518.04 955,-521.04 952,-521.04"/>
<text text-anchor="start" x="915" y="-509.84" font-family="Helvetica,sans-Serif" font-size="9.00">index.ts</text>
</a>
</g>
</g>
<!-- src/features/home/components/HomePage.tsx&#45;&gt;src/libs/chakra/index.ts -->
<g id="edge1" class="edge">
<title>src/features/home/components/HomePage.tsx&#45;&gt;src/libs/chakra/index.ts</title>
<path fill="none" stroke="#000000" stroke-width="2" stroke-opacity="0.200000" d="M229.7,-481.09C271.18,-490.24 339.94,-503.04 400,-503.04 400,-503.04 400,-503.04 705.5,-503.04 773.91,-503.04 853.95,-507.26 897.58,-509.92"/>
<polygon fill="#000000" fill-opacity="0.200000" stroke="#000000" stroke-width="2" stroke-opacity="0.200000" points="897.63,-512.03 903.75,-510.3 897.89,-507.84 897.63,-512.03"/>
</g>
<!-- src/libs/i18n/index.ts -->
<g id="node3" class="node">
<title>src/libs/i18n/index.ts</title>
<g id="a_node3"><a xlink:href="src/libs/i18n/index.ts" xlink:title="index.ts">
<path fill="#ddfeff" stroke="black" d="M725.5,-191.04C725.5,-191.04 683.5,-191.04 683.5,-191.04 680.5,-191.04 677.5,-188.04 677.5,-185.04 677.5,-185.04 677.5,-179.04 677.5,-179.04 677.5,-176.04 680.5,-173.04 683.5,-173.04 683.5,-173.04 725.5,-173.04 725.5,-173.04 728.5,-173.04 731.5,-176.04 731.5,-179.04 731.5,-179.04 731.5,-185.04 731.5,-185.04 731.5,-188.04 728.5,-191.04 725.5,-191.04"/>
<text text-anchor="start" x="688.5" y="-179.84" font-family="Helvetica,sans-Serif" font-size="9.00">index.ts</text>
</a>
</g>
</g>
<!-- src/features/home/components/HomePage.tsx&#45;&gt;src/libs/i18n/index.ts -->
<g id="edge2" class="edge">
<title>src/features/home/components/HomePage.tsx&#45;&gt;src/libs/i18n/index.ts</title>
<path fill="none" stroke="#000000" stroke-width="2" stroke-opacity="0.200000" d="M229.85,-466.2C271.46,-460.3 340.32,-452.04 400,-452.04 400,-452.04 400,-452.04 508,-452.04 597.97,-452.04 598.08,-375.37 632,-292.04 643.81,-263.04 623.33,-248.55 640,-222.04 647.82,-209.6 661.06,-200.36 673.44,-193.92"/>
<polygon fill="#000000" fill-opacity="0.200000" stroke="#000000" stroke-width="2" stroke-opacity="0.200000" points="674.6,-195.69 679.05,-191.15 672.74,-191.92 674.6,-195.69"/>
</g>
<!-- src/libs/next/index.ts -->
<g id="node4" class="node">
<title>src/libs/next/index.ts</title>
<g id="a_node4"><a xlink:href="src/libs/next/index.ts" xlink:title="index.ts">
<path fill="#ddfeff" stroke="black" d="M725.5,-267.04C725.5,-267.04 683.5,-267.04 683.5,-267.04 680.5,-267.04 677.5,-264.04 677.5,-261.04 677.5,-261.04 677.5,-255.04 677.5,-255.04 677.5,-252.04 680.5,-249.04 683.5,-249.04 683.5,-249.04 725.5,-249.04 725.5,-249.04 728.5,-249.04 731.5,-252.04 731.5,-255.04 731.5,-255.04 731.5,-261.04 731.5,-261.04 731.5,-264.04 728.5,-267.04 725.5,-267.04"/>
<text text-anchor="start" x="688.5" y="-255.84" font-family="Helvetica,sans-Serif" font-size="9.00">index.ts</text>
</a>
</g>
</g>
<!-- src/features/home/components/HomePage.tsx&#45;&gt;src/libs/next/index.ts -->
<g id="edge3" class="edge">
<title>src/features/home/components/HomePage.tsx&#45;&gt;src/libs/next/index.ts</title>
<path fill="none" stroke="#000000" stroke-width="2" stroke-opacity="0.200000" d="M229.57,-470.3C271.21,-468.53 340.39,-466.04 400,-466.04 400,-466.04 400,-466.04 508,-466.04 563.29,-466.04 588.06,-489.6 632,-456.04 691.33,-410.71 701.5,-311.64 703.19,-273.47"/>
<polygon fill="#000000" fill-opacity="0.200000" stroke="#000000" stroke-width="2" stroke-opacity="0.200000" points="705.3,-273.14 703.42,-267.07 701.1,-272.99 705.3,-273.14"/>
</g>
<!-- src/shared/type/post.ts -->
<g id="node5" class="node">
<title>src/shared/type/post.ts</title>
<g id="a_node5"><a xlink:href="src/shared/type/post.ts" xlink:title="post.ts">
<path fill="#ddfeff" stroke="black" d="M339,-349.04C339,-349.04 297,-349.04 297,-349.04 294,-349.04 291,-346.04 291,-343.04 291,-343.04 291,-337.04 291,-337.04 291,-334.04 294,-331.04 297,-331.04 297,-331.04 339,-331.04 339,-331.04 342,-331.04 345,-334.04 345,-337.04 345,-337.04 345,-343.04 345,-343.04 345,-346.04 342,-349.04 339,-349.04"/>
<text text-anchor="start" x="304.5" y="-337.84" font-family="Helvetica,sans-Serif" font-size="9.00">post.ts</text>
</a>
</g>
</g>
<!-- src/features/home/components/HomePage.tsx&#45;&gt;src/shared/type/post.ts -->
<g id="edge4" class="edge">
<title>src/features/home/components/HomePage.tsx&#45;&gt;src/shared/type/post.ts</title>
<path fill="none" stroke="#000000" stroke-width="2" stroke-opacity="0.200000" d="M229.68,-469.58C240.01,-467.4 250.65,-463.59 259,-457.04 267.74,-450.18 297.11,-385.2 310.39,-355.15"/>
<polygon fill="#000000" fill-opacity="0.200000" stroke="#000000" stroke-width="2" stroke-opacity="0.200000" points="312.47,-355.64 312.96,-349.3 308.62,-353.95 312.47,-355.64"/>
</g>
<!-- src/libs/chakra/components/Box/index.tsx -->
<g id="node12" class="node">
<title>src/libs/chakra/components/Box/index.tsx</title>
<g id="a_node12"><a xlink:href="src/libs/chakra/components/Box/index.tsx" xlink:title="index.tsx">
<path fill="#bbfeff" stroke="black" d="M1079,-515.04C1079,-515.04 1037,-515.04 1037,-515.04 1034,-515.04 1031,-512.04 1031,-509.04 1031,-509.04 1031,-503.04 1031,-503.04 1031,-500.04 1034,-497.04 1037,-497.04 1037,-497.04 1079,-497.04 1079,-497.04 1082,-497.04 1085,-500.04 1085,-503.04 1085,-503.04 1085,-509.04 1085,-509.04 1085,-512.04 1082,-515.04 1079,-515.04"/>
<text text-anchor="start" x="1039.5" y="-503.84" font-family="Helvetica,sans-Serif" font-size="9.00">index.tsx</text>
</a>
</g>
</g>
<!-- src/libs/chakra/index.ts&#45;&gt;src/libs/chakra/components/Box/index.tsx -->
<g id="edge15" class="edge">
<title>src/libs/chakra/index.ts&#45;&gt;src/libs/chakra/components/Box/index.tsx</title>
<path fill="none" stroke="#000000" stroke-width="2" stroke-opacity="0.200000" d="M958.2,-510.78C977.54,-509.85 1003.96,-508.58 1024.62,-507.59"/>
<polygon fill="#000000" fill-opacity="0.200000" stroke="#000000" stroke-width="2" stroke-opacity="0.200000" points="1024.94,-509.68 1030.83,-507.29 1024.74,-505.48 1024.94,-509.68"/>
</g>
<!-- src/libs/chakra/components/Flex/index.tsx -->
<g id="node14" class="node">
<title>src/libs/chakra/components/Flex/index.tsx</title>
<g id="a_node14"><a xlink:href="src/libs/chakra/components/Flex/index.tsx" xlink:title="index.tsx">
<path fill="#bbfeff" stroke="black" d="M1079,-755.04C1079,-755.04 1037,-755.04 1037,-755.04 1034,-755.04 1031,-752.04 1031,-749.04 1031,-749.04 1031,-743.04 1031,-743.04 1031,-740.04 1034,-737.04 1037,-737.04 1037,-737.04 1079,-737.04 1079,-737.04 1082,-737.04 1085,-740.04 1085,-743.04 1085,-743.04 1085,-749.04 1085,-749.04 1085,-752.04 1082,-755.04 1079,-755.04"/>
<text text-anchor="start" x="1039.5" y="-743.84" font-family="Helvetica,sans-Serif" font-size="9.00">index.tsx</text>
</a>
</g>
</g>
<!-- src/libs/chakra/index.ts&#45;&gt;src/libs/chakra/components/Flex/index.tsx -->
<g id="edge16" class="edge">
<title>src/libs/chakra/index.ts&#45;&gt;src/libs/chakra/components/Flex/index.tsx</title>
<path fill="none" stroke="#000000" stroke-width="2" stroke-opacity="0.200000" d="M933.27,-521.29C938.1,-553.24 958.02,-660.46 1015,-724.04 1018.47,-727.92 1022.8,-731.22 1027.33,-734"/>
<polygon fill="#000000" fill-opacity="0.200000" stroke="#000000" stroke-width="2" stroke-opacity="0.200000" points="1026.46,-735.92 1032.72,-737.02 1028.52,-732.25 1026.46,-735.92"/>
</g>
<!-- src/libs/chakra/components/Grid/index.tsx -->
<g id="node16" class="node">
<title>src/libs/chakra/components/Grid/index.tsx</title>
<g id="a_node16"><a xlink:href="src/libs/chakra/components/Grid/index.tsx" xlink:title="index.tsx">
<path fill="#bbfeff" stroke="black" d="M1079,-695.04C1079,-695.04 1037,-695.04 1037,-695.04 1034,-695.04 1031,-692.04 1031,-689.04 1031,-689.04 1031,-683.04 1031,-683.04 1031,-680.04 1034,-677.04 1037,-677.04 1037,-677.04 1079,-677.04 1079,-677.04 1082,-677.04 1085,-680.04 1085,-683.04 1085,-683.04 1085,-689.04 1085,-689.04 1085,-692.04 1082,-695.04 1079,-695.04"/>
<text text-anchor="start" x="1039.5" y="-683.84" font-family="Helvetica,sans-Serif" font-size="9.00">index.tsx</text>
</a>
</g>
</g>
<!-- src/libs/chakra/index.ts&#45;&gt;src/libs/chakra/components/Grid/index.tsx -->
<g id="edge17" class="edge">
<title>src/libs/chakra/index.ts&#45;&gt;src/libs/chakra/components/Grid/index.tsx</title>
<path fill="none" stroke="#000000" stroke-width="2" stroke-opacity="0.200000" d="M934.83,-521.07C943.22,-546.55 970.18,-619.99 1015,-664.04 1018.8,-667.77 1023.36,-671.02 1028.05,-673.8"/>
<polygon fill="#000000" fill-opacity="0.200000" stroke="#000000" stroke-width="2" stroke-opacity="0.200000" points="1027.32,-675.79 1033.59,-676.83 1029.34,-672.11 1027.32,-675.79"/>
</g>
<!-- src/libs/chakra/components/Spacer/index.tsx -->
<g id="node18" class="node">
<title>src/libs/chakra/components/Spacer/index.tsx</title>
<g id="a_node18"><a xlink:href="src/libs/chakra/components/Spacer/index.tsx" xlink:title="index.tsx">
<path fill="#bbfeff" stroke="black" d="M1079,-635.04C1079,-635.04 1037,-635.04 1037,-635.04 1034,-635.04 1031,-632.04 1031,-629.04 1031,-629.04 1031,-623.04 1031,-623.04 1031,-620.04 1034,-617.04 1037,-617.04 1037,-617.04 1079,-617.04 1079,-617.04 1082,-617.04 1085,-620.04 1085,-623.04 1085,-623.04 1085,-629.04 1085,-629.04 1085,-632.04 1082,-635.04 1079,-635.04"/>
<text text-anchor="start" x="1039.5" y="-623.84" font-family="Helvetica,sans-Serif" font-size="9.00">index.tsx</text>
</a>
</g>
</g>
<!-- src/libs/chakra/index.ts&#45;&gt;src/libs/chakra/components/Spacer/index.tsx -->
<g id="edge18" class="edge">
<title>src/libs/chakra/index.ts&#45;&gt;src/libs/chakra/components/Spacer/index.tsx</title>
<path fill="none" stroke="#000000" stroke-width="2" stroke-opacity="0.200000" d="M938.44,-521.11C951.36,-538.82 982.02,-578.46 1015,-604.04 1019.78,-607.75 1025.28,-611.14 1030.69,-614.09"/>
<polygon fill="#000000" fill-opacity="0.200000" stroke="#000000" stroke-width="2" stroke-opacity="0.200000" points="1029.75,-615.97 1036.04,-616.89 1031.7,-612.25 1029.75,-615.97"/>
</g>
<!-- src/libs/chakra/components/Stack/index.tsx -->
<g id="node20" class="node">
<title>src/libs/chakra/components/Stack/index.tsx</title>
<g id="a_node20"><a xlink:href="src/libs/chakra/components/Stack/index.tsx" xlink:title="index.tsx">
<path fill="#bbfeff" stroke="black" d="M1079,-575.04C1079,-575.04 1037,-575.04 1037,-575.04 1034,-575.04 1031,-572.04 1031,-569.04 1031,-569.04 1031,-563.04 1031,-563.04 1031,-560.04 1034,-557.04 1037,-557.04 1037,-557.04 1079,-557.04 1079,-557.04 1082,-557.04 1085,-560.04 1085,-563.04 1085,-563.04 1085,-569.04 1085,-569.04 1085,-572.04 1082,-575.04 1079,-575.04"/>
<text text-anchor="start" x="1039.5" y="-563.84" font-family="Helvetica,sans-Serif" font-size="9.00">index.tsx</text>
</a>
</g>
</g>
<!-- src/libs/chakra/index.ts&#45;&gt;src/libs/chakra/components/Stack/index.tsx -->
<g id="edge19" class="edge">
<title>src/libs/chakra/index.ts&#45;&gt;src/libs/chakra/components/Stack/index.tsx</title>
<path fill="none" stroke="#000000" stroke-width="2" stroke-opacity="0.200000" d="M952.92,-521.08C974.19,-530.27 1007.23,-544.54 1030.36,-554.53"/>
<polygon fill="#000000" fill-opacity="0.200000" stroke="#000000" stroke-width="2" stroke-opacity="0.200000" points="1029.67,-556.52 1036.01,-556.97 1031.33,-552.66 1029.67,-556.52"/>
</g>
<!-- src/libs/chakra/theme/index.ts -->
<g id="node21" class="node">
<title>src/libs/chakra/theme/index.ts</title>
<g id="a_node21"><a xlink:href="src/libs/chakra/theme/index.ts" xlink:title="index.ts">
<path fill="#ddfeff" stroke="black" d="M1079,-447.04C1079,-447.04 1037,-447.04 1037,-447.04 1034,-447.04 1031,-444.04 1031,-441.04 1031,-441.04 1031,-435.04 1031,-435.04 1031,-432.04 1034,-429.04 1037,-429.04 1037,-429.04 1079,-429.04 1079,-429.04 1082,-429.04 1085,-432.04 1085,-435.04 1085,-435.04 1085,-441.04 1085,-441.04 1085,-444.04 1082,-447.04 1079,-447.04"/>
<text text-anchor="start" x="1042" y="-435.84" font-family="Helvetica,sans-Serif" font-size="9.00">index.ts</text>
</a>
</g>
</g>
<!-- src/libs/chakra/index.ts&#45;&gt;src/libs/chakra/theme/index.ts -->
<g id="edge20" class="edge">
<title>src/libs/chakra/index.ts&#45;&gt;src/libs/chakra/theme/index.ts</title>
<path fill="none" stroke="#000000" stroke-width="2" stroke-opacity="0.200000" d="M947.33,-502.96C969.63,-489.76 1011.1,-465.21 1036.16,-450.38"/>
<polygon fill="#000000" fill-opacity="0.200000" stroke="#000000" stroke-width="2" stroke-opacity="0.200000" points="1037.45,-452.05 1041.55,-447.19 1035.31,-448.44 1037.45,-452.05"/>
</g>
<!-- src/libs/i18n/hooks/useTranslation.ts -->
<g id="node22" class="node">
<title>src/libs/i18n/hooks/useTranslation.ts</title>
<g id="a_node22"><a xlink:href="src/libs/i18n/hooks/useTranslation.ts" xlink:title="useTranslation.ts">
<path fill="#ddfeff" stroke="black" d="M857,-165.04C857,-165.04 783,-165.04 783,-165.04 780,-165.04 777,-162.04 777,-159.04 777,-159.04 777,-153.04 777,-153.04 777,-150.04 780,-147.04 783,-147.04 783,-147.04 857,-147.04 857,-147.04 860,-147.04 863,-150.04 863,-153.04 863,-153.04 863,-159.04 863,-159.04 863,-162.04 860,-165.04 857,-165.04"/>
<text text-anchor="start" x="785" y="-153.84" font-family="Helvetica,sans-Serif" font-size="9.00">useTranslation.ts</text>
</a>
</g>
</g>
<!-- src/libs/i18n/index.ts&#45;&gt;src/libs/i18n/hooks/useTranslation.ts -->
<g id="edge22" class="edge">
<title>src/libs/i18n/index.ts&#45;&gt;src/libs/i18n/hooks/useTranslation.ts</title>
<path fill="none" stroke="#000000" stroke-width="2" stroke-opacity="0.200000" d="M731.54,-176.07C743.91,-173.24 759.06,-169.77 773.26,-166.52"/>
<polygon fill="#000000" fill-opacity="0.200000" stroke="#000000" stroke-width="2" stroke-opacity="0.200000" points="773.9,-168.52 779.28,-165.14 772.96,-164.43 773.9,-168.52"/>
</g>
<!-- src/libs/next/components/ChakraNextImage/index.tsx -->
<g id="node27" class="node">
<title>src/libs/next/components/ChakraNextImage/index.tsx</title>
<g id="a_node27"><a xlink:href="src/libs/next/components/ChakraNextImage/index.tsx" xlink:title="index.tsx">
<path fill="#bbfeff" stroke="black" d="M841,-327.04C841,-327.04 799,-327.04 799,-327.04 796,-327.04 793,-324.04 793,-321.04 793,-321.04 793,-315.04 793,-315.04 793,-312.04 796,-309.04 799,-309.04 799,-309.04 841,-309.04 841,-309.04 844,-309.04 847,-312.04 847,-315.04 847,-315.04 847,-321.04 847,-321.04 847,-324.04 844,-327.04 841,-327.04"/>
<text text-anchor="start" x="801.5" y="-315.84" font-family="Helvetica,sans-Serif" font-size="9.00">index.tsx</text>
</a>
</g>
</g>
<!-- src/libs/next/index.ts&#45;&gt;src/libs/next/components/ChakraNextImage/index.tsx -->
<g id="edge26" class="edge">
<title>src/libs/next/index.ts&#45;&gt;src/libs/next/components/ChakraNextImage/index.tsx</title>
<path fill="none" stroke="#000000" stroke-width="2" stroke-opacity="0.200000" d="M719.83,-267.32C732.52,-275.36 751.65,-287.07 769,-296.04 775.98,-299.64 783.67,-303.22 790.89,-306.41"/>
<polygon fill="#000000" fill-opacity="0.200000" stroke="#000000" stroke-width="2" stroke-opacity="0.200000" points="790.48,-308.51 796.82,-308.98 792.15,-304.66 790.48,-308.51"/>
</g>
<!-- src/libs/next/components/ChakraNextLink/index.tsx -->
<g id="node29" class="node">
<title>src/libs/next/components/ChakraNextLink/index.tsx</title>
<g id="a_node29"><a xlink:href="src/libs/next/components/ChakraNextLink/index.tsx" xlink:title="index.tsx">
<path fill="#bbfeff" stroke="black" d="M841,-267.04C841,-267.04 799,-267.04 799,-267.04 796,-267.04 793,-264.04 793,-261.04 793,-261.04 793,-255.04 793,-255.04 793,-252.04 796,-249.04 799,-249.04 799,-249.04 841,-249.04 841,-249.04 844,-249.04 847,-252.04 847,-255.04 847,-255.04 847,-261.04 847,-261.04 847,-264.04 844,-267.04 841,-267.04"/>
<text text-anchor="start" x="801.5" y="-255.84" font-family="Helvetica,sans-Serif" font-size="9.00">index.tsx</text>
</a>
</g>
</g>
<!-- src/libs/next/index.ts&#45;&gt;src/libs/next/components/ChakraNextLink/index.tsx -->
<g id="edge27" class="edge">
<title>src/libs/next/index.ts&#45;&gt;src/libs/next/components/ChakraNextLink/index.tsx</title>
<path fill="none" stroke="#000000" stroke-width="2" stroke-opacity="0.200000" d="M731.54,-258.04C747.86,-258.04 769.03,-258.04 786.45,-258.04"/>
<polygon fill="#000000" fill-opacity="0.200000" stroke="#000000" stroke-width="2" stroke-opacity="0.200000" points="786.69,-260.14 792.69,-258.04 786.69,-255.94 786.69,-260.14"/>
</g>
<!-- src/features/home/components/HomePageLayout.tsx -->
<g id="node6" class="node">
<title>src/features/home/components/HomePageLayout.tsx</title>
<g id="a_node6"><a xlink:href="src/features/home/components/HomePageLayout.tsx" xlink:title="HomePageLayout.tsx">
<path fill="#bbfeff" stroke="black" d="M237,-451.04C237,-451.04 145,-451.04 145,-451.04 142,-451.04 139,-448.04 139,-445.04 139,-445.04 139,-439.04 139,-439.04 139,-436.04 142,-433.04 145,-433.04 145,-433.04 237,-433.04 237,-433.04 240,-433.04 243,-436.04 243,-439.04 243,-439.04 243,-445.04 243,-445.04 243,-448.04 240,-451.04 237,-451.04"/>
<text text-anchor="start" x="147" y="-439.84" font-family="Helvetica,sans-Serif" font-size="9.00">HomePageLayout.tsx</text>
</a>
</g>
</g>
<!-- src/features/post/components/Content/Content.tsx -->
<g id="node7" class="node">
<title>src/features/post/components/Content/Content.tsx</title>
<g id="a_node7"><a xlink:href="src/features/post/components/Content/Content.tsx" xlink:title="Content.tsx">
<path fill="#bbfeff" stroke="black" d="M426,-583.04C426,-583.04 376,-583.04 376,-583.04 373,-583.04 370,-580.04 370,-577.04 370,-577.04 370,-571.04 370,-571.04 370,-568.04 373,-565.04 376,-565.04 376,-565.04 426,-565.04 426,-565.04 429,-565.04 432,-568.04 432,-571.04 432,-571.04 432,-577.04 432,-577.04 432,-580.04 429,-583.04 426,-583.04"/>
<text text-anchor="start" x="378" y="-571.84" font-family="Helvetica,sans-Serif" font-size="9.00">Content.tsx</text>
</a>
</g>
</g>
<!-- src/features/post/components/Content/Content.tsx&#45;&gt;src/libs/chakra/index.ts -->
<g id="edge5" class="edge">
<title>src/features/post/components/Content/Content.tsx&#45;&gt;src/libs/chakra/index.ts</title>
<path fill="none" stroke="#000000" stroke-width="2" stroke-opacity="0.200000" d="M432.19,-569.58C466.92,-564.85 525.69,-558.04 576.5,-558.04 576.5,-558.04 576.5,-558.04 705.5,-558.04 779.76,-558.04 799.14,-553.76 871,-535.04 882.21,-532.12 894.18,-527.71 904.39,-523.53"/>
<polygon fill="#000000" fill-opacity="0.200000" stroke="#000000" stroke-width="2" stroke-opacity="0.200000" points="905.45,-525.36 910.18,-521.11 903.83,-521.48 905.45,-525.36"/>
</g>
<!-- src/features/post/components/Content/index.tsx -->
<g id="node8" class="node">
<title>src/features/post/components/Content/index.tsx</title>
<g id="a_node8"><a xlink:href="src/features/post/components/Content/index.tsx" xlink:title="index.tsx">
<path fill="#bbfeff" stroke="black" d="M339,-583.04C339,-583.04 297,-583.04 297,-583.04 294,-583.04 291,-580.04 291,-577.04 291,-577.04 291,-571.04 291,-571.04 291,-568.04 294,-565.04 297,-565.04 297,-565.04 339,-565.04 339,-565.04 342,-565.04 345,-568.04 345,-571.04 345,-571.04 345,-577.04 345,-577.04 345,-580.04 342,-583.04 339,-583.04"/>
<text text-anchor="start" x="299.5" y="-571.84" font-family="Helvetica,sans-Serif" font-size="9.00">index.tsx</text>
</a>
</g>
</g>
<!-- src/features/post/components/Content/index.tsx&#45;&gt;src/features/post/components/Content/Content.tsx -->
<g id="edge6" class="edge">
<title>src/features/post/components/Content/index.tsx&#45;&gt;src/features/post/components/Content/Content.tsx</title>
<path fill="none" stroke="#000000" stroke-width="2" stroke-opacity="0.200000" d="M345.07,-574.04C350.97,-574.04 357.34,-574.04 363.57,-574.04"/>
<polygon fill="#000000" fill-opacity="0.200000" stroke="#000000" stroke-width="2" stroke-opacity="0.200000" points="363.74,-576.14 369.74,-574.04 363.74,-571.94 363.74,-576.14"/>
</g>
<!-- src/features/post/components/PostPage.tsx -->
<g id="node9" class="node">
<title>src/features/post/components/PostPage.tsx</title>
<g id="a_node9"><a xlink:href="src/features/post/components/PostPage.tsx" xlink:title="PostPage.tsx">
<path fill="#bbfeff" stroke="black" d="M220,-605.04C220,-605.04 162,-605.04 162,-605.04 159,-605.04 156,-602.04 156,-599.04 156,-599.04 156,-593.04 156,-593.04 156,-590.04 159,-587.04 162,-587.04 162,-587.04 220,-587.04 220,-587.04 223,-587.04 226,-590.04 226,-593.04 226,-593.04 226,-599.04 226,-599.04 226,-602.04 223,-605.04 220,-605.04"/>
<text text-anchor="start" x="164" y="-593.84" font-family="Helvetica,sans-Serif" font-size="9.00">PostPage.tsx</text>
</a>
</g>
</g>
<!-- src/features/post/components/PostPage.tsx&#45;&gt;src/libs/chakra/index.ts -->
<g id="edge8" class="edge">
<title>src/features/post/components/PostPage.tsx&#45;&gt;src/libs/chakra/index.ts</title>
<path fill="none" stroke="#000000" stroke-width="2" stroke-opacity="0.200000" d="M226.27,-595.24C237.92,-593.33 250.2,-589.26 259,-581.04 268.14,-572.49 257.65,-562.36 267,-554.04 311.82,-514.17 340.01,-531.04 400,-531.04 400,-531.04 400,-531.04 705.5,-531.04 774.1,-531.04 854.07,-522.12 897.64,-516.51"/>
<polygon fill="#000000" fill-opacity="0.200000" stroke="#000000" stroke-width="2" stroke-opacity="0.200000" points="898.12,-518.56 903.79,-515.7 897.57,-514.4 898.12,-518.56"/>
</g>
<!-- src/features/post/components/PostPage.tsx&#45;&gt;src/shared/type/post.ts -->
<g id="edge9" class="edge">
<title>src/features/post/components/PostPage.tsx&#45;&gt;src/shared/type/post.ts</title>
<path fill="none" stroke="#000000" stroke-width="2" stroke-opacity="0.200000" d="M226.23,-596.01C238.16,-594.22 250.64,-590.03 259,-581.04 267.26,-572.15 264.54,-538.92 267,-527.04 280.36,-462.52 302.58,-387.15 312.26,-355.38"/>
<polygon fill="#000000" fill-opacity="0.200000" stroke="#000000" stroke-width="2" stroke-opacity="0.200000" points="314.37,-355.64 314.12,-349.29 310.36,-354.41 314.37,-355.64"/>
</g>
<!-- src/features/post/components/PostPage.tsx&#45;&gt;src/features/post/components/Content/index.tsx -->
<g id="edge7" class="edge">
<title>src/features/post/components/PostPage.tsx&#45;&gt;src/features/post/components/Content/index.tsx</title>
<path fill="none" stroke="#000000" stroke-width="2" stroke-opacity="0.200000" d="M226.16,-590.03C244.47,-586.8 266.9,-582.86 284.9,-579.69"/>
<polygon fill="#000000" fill-opacity="0.200000" stroke="#000000" stroke-width="2" stroke-opacity="0.200000" points="285.27,-581.76 290.81,-578.65 284.54,-577.62 285.27,-581.76"/>
</g>
<!-- src/features/post/components/PostPageLayout.tsx -->
<g id="node10" class="node">
<title>src/features/post/components/PostPageLayout.tsx</title>
<g id="a_node10"><a xlink:href="src/features/post/components/PostPageLayout.tsx" xlink:title="PostPageLayout.tsx">
<path fill="#bbfeff" stroke="black" d="M234,-575.04C234,-575.04 148,-575.04 148,-575.04 145,-575.04 142,-572.04 142,-569.04 142,-569.04 142,-563.04 142,-563.04 142,-560.04 145,-557.04 148,-557.04 148,-557.04 234,-557.04 234,-557.04 237,-557.04 240,-560.04 240,-563.04 240,-563.04 240,-569.04 240,-569.04 240,-572.04 237,-575.04 234,-575.04"/>
<text text-anchor="start" x="150" y="-563.84" font-family="Helvetica,sans-Serif" font-size="9.00">PostPageLayout.tsx</text>
</a>
</g>
</g>
<!-- src/libs/chakra/components/Box/Box.tsx -->
<g id="node11" class="node">
<title>src/libs/chakra/components/Box/Box.tsx</title>
<g id="a_node11"><a xlink:href="src/libs/chakra/components/Box/Box.tsx" xlink:title="Box.tsx">
<path fill="#bbfeff" stroke="black" d="M1151.5,-515.04C1151.5,-515.04 1109.5,-515.04 1109.5,-515.04 1106.5,-515.04 1103.5,-512.04 1103.5,-509.04 1103.5,-509.04 1103.5,-503.04 1103.5,-503.04 1103.5,-500.04 1106.5,-497.04 1109.5,-497.04 1109.5,-497.04 1151.5,-497.04 1151.5,-497.04 1154.5,-497.04 1157.5,-500.04 1157.5,-503.04 1157.5,-503.04 1157.5,-509.04 1157.5,-509.04 1157.5,-512.04 1154.5,-515.04 1151.5,-515.04"/>
<text text-anchor="start" x="1115.5" y="-503.84" font-family="Helvetica,sans-Serif" font-size="9.00">Box.tsx</text>
</a>
</g>
</g>
<!-- src/libs/chakra/components/Box/index.tsx&#45;&gt;src/libs/chakra/components/Box/Box.tsx -->
<g id="edge10" class="edge">
<title>src/libs/chakra/components/Box/index.tsx&#45;&gt;src/libs/chakra/components/Box/Box.tsx</title>
<path fill="none" stroke="#000000" stroke-width="2" stroke-opacity="0.200000" d="M1085.25,-506.04C1089.16,-506.04 1093.22,-506.04 1097.23,-506.04"/>
<polygon fill="#000000" fill-opacity="0.200000" stroke="#000000" stroke-width="2" stroke-opacity="0.200000" points="1097.46,-508.14 1103.46,-506.04 1097.46,-503.94 1097.46,-508.14"/>
</g>
<!-- src/libs/chakra/components/Flex/Flex.tsx -->
<g id="node13" class="node">
<title>src/libs/chakra/components/Flex/Flex.tsx</title>
<g id="a_node13"><a xlink:href="src/libs/chakra/components/Flex/Flex.tsx" xlink:title="Flex.tsx">
<path fill="#bbfeff" stroke="black" d="M1151.5,-755.04C1151.5,-755.04 1109.5,-755.04 1109.5,-755.04 1106.5,-755.04 1103.5,-752.04 1103.5,-749.04 1103.5,-749.04 1103.5,-743.04 1103.5,-743.04 1103.5,-740.04 1106.5,-737.04 1109.5,-737.04 1109.5,-737.04 1151.5,-737.04 1151.5,-737.04 1154.5,-737.04 1157.5,-740.04 1157.5,-743.04 1157.5,-743.04 1157.5,-749.04 1157.5,-749.04 1157.5,-752.04 1154.5,-755.04 1151.5,-755.04"/>
<text text-anchor="start" x="1115" y="-743.84" font-family="Helvetica,sans-Serif" font-size="9.00">Flex.tsx</text>
</a>
</g>
</g>
<!-- src/libs/chakra/components/Flex/index.tsx&#45;&gt;src/libs/chakra/components/Flex/Flex.tsx -->
<g id="edge11" class="edge">
<title>src/libs/chakra/components/Flex/index.tsx&#45;&gt;src/libs/chakra/components/Flex/Flex.tsx</title>
<path fill="none" stroke="#000000" stroke-width="2" stroke-opacity="0.200000" d="M1085.25,-746.04C1089.16,-746.04 1093.22,-746.04 1097.23,-746.04"/>
<polygon fill="#000000" fill-opacity="0.200000" stroke="#000000" stroke-width="2" stroke-opacity="0.200000" points="1097.46,-748.14 1103.46,-746.04 1097.46,-743.94 1097.46,-748.14"/>
</g>
<!-- src/libs/chakra/components/Grid/Grid.tsx -->
<g id="node15" class="node">
<title>src/libs/chakra/components/Grid/Grid.tsx</title>
<g id="a_node15"><a xlink:href="src/libs/chakra/components/Grid/Grid.tsx" xlink:title="Grid.tsx">
<path fill="#bbfeff" stroke="black" d="M1151.5,-695.04C1151.5,-695.04 1109.5,-695.04 1109.5,-695.04 1106.5,-695.04 1103.5,-692.04 1103.5,-689.04 1103.5,-689.04 1103.5,-683.04 1103.5,-683.04 1103.5,-680.04 1106.5,-677.04 1109.5,-677.04 1109.5,-677.04 1151.5,-677.04 1151.5,-677.04 1154.5,-677.04 1157.5,-680.04 1157.5,-683.04 1157.5,-683.04 1157.5,-689.04 1157.5,-689.04 1157.5,-692.04 1154.5,-695.04 1151.5,-695.04"/>
<text text-anchor="start" x="1115" y="-683.84" font-family="Helvetica,sans-Serif" font-size="9.00">Grid.tsx</text>
</a>
</g>
</g>
<!-- src/libs/chakra/components/Grid/index.tsx&#45;&gt;src/libs/chakra/components/Grid/Grid.tsx -->
<g id="edge12" class="edge">
<title>src/libs/chakra/components/Grid/index.tsx&#45;&gt;src/libs/chakra/components/Grid/Grid.tsx</title>
<path fill="none" stroke="#000000" stroke-width="2" stroke-opacity="0.200000" d="M1085.25,-686.04C1089.16,-686.04 1093.22,-686.04 1097.23,-686.04"/>
<polygon fill="#000000" fill-opacity="0.200000" stroke="#000000" stroke-width="2" stroke-opacity="0.200000" points="1097.46,-688.14 1103.46,-686.04 1097.46,-683.94 1097.46,-688.14"/>
</g>
<!-- src/libs/chakra/components/Spacer/Spacer.tsx -->
<g id="node17" class="node">
<title>src/libs/chakra/components/Spacer/Spacer.tsx</title>
<g id="a_node17"><a xlink:href="src/libs/chakra/components/Spacer/Spacer.tsx" xlink:title="Spacer.tsx">
<path fill="#bbfeff" stroke="black" d="M1154,-635.04C1154,-635.04 1107,-635.04 1107,-635.04 1104,-635.04 1101,-632.04 1101,-629.04 1101,-629.04 1101,-623.04 1101,-623.04 1101,-620.04 1104,-617.04 1107,-617.04 1107,-617.04 1154,-617.04 1154,-617.04 1157,-617.04 1160,-620.04 1160,-623.04 1160,-623.04 1160,-629.04 1160,-629.04 1160,-632.04 1157,-635.04 1154,-635.04"/>
<text text-anchor="start" x="1109" y="-623.84" font-family="Helvetica,sans-Serif" font-size="9.00">Spacer.tsx</text>
</a>
</g>
</g>
<!-- src/libs/chakra/components/Spacer/index.tsx&#45;&gt;src/libs/chakra/components/Spacer/Spacer.tsx -->
<g id="edge13" class="edge">
<title>src/libs/chakra/components/Spacer/index.tsx&#45;&gt;src/libs/chakra/components/Spacer/Spacer.tsx</title>
<path fill="none" stroke="#000000" stroke-width="2" stroke-opacity="0.200000" d="M1085.25,-626.04C1088.23,-626.04 1091.29,-626.04 1094.36,-626.04"/>
<polygon fill="#000000" fill-opacity="0.200000" stroke="#000000" stroke-width="2" stroke-opacity="0.200000" points="1094.62,-628.14 1100.62,-626.04 1094.62,-623.94 1094.62,-628.14"/>
</g>
<!-- src/libs/chakra/components/Stack/Stack.tsx -->
<g id="node19" class="node">
<title>src/libs/chakra/components/Stack/Stack.tsx</title>
<g id="a_node19"><a xlink:href="src/libs/chakra/components/Stack/Stack.tsx" xlink:title="Stack.tsx">
<path fill="#bbfeff" stroke="black" d="M1151.5,-575.04C1151.5,-575.04 1109.5,-575.04 1109.5,-575.04 1106.5,-575.04 1103.5,-572.04 1103.5,-569.04 1103.5,-569.04 1103.5,-563.04 1103.5,-563.04 1103.5,-560.04 1106.5,-557.04 1109.5,-557.04 1109.5,-557.04 1151.5,-557.04 1151.5,-557.04 1154.5,-557.04 1157.5,-560.04 1157.5,-563.04 1157.5,-563.04 1157.5,-569.04 1157.5,-569.04 1157.5,-572.04 1154.5,-575.04 1151.5,-575.04"/>
<text text-anchor="start" x="1112" y="-563.84" font-family="Helvetica,sans-Serif" font-size="9.00">Stack.tsx</text>
</a>
</g>
</g>
<!-- src/libs/chakra/components/Stack/index.tsx&#45;&gt;src/libs/chakra/components/Stack/Stack.tsx -->
<g id="edge14" class="edge">
<title>src/libs/chakra/components/Stack/index.tsx&#45;&gt;src/libs/chakra/components/Stack/Stack.tsx</title>
<path fill="none" stroke="#000000" stroke-width="2" stroke-opacity="0.200000" d="M1085.25,-566.04C1089.16,-566.04 1093.22,-566.04 1097.23,-566.04"/>
<polygon fill="#000000" fill-opacity="0.200000" stroke="#000000" stroke-width="2" stroke-opacity="0.200000" points="1097.46,-568.14 1103.46,-566.04 1097.46,-563.94 1097.46,-568.14"/>
</g>
<!-- src/libs/i18n/locales/index.ts -->
<g id="node23" class="node">
<title>src/libs/i18n/locales/index.ts</title>
<g id="a_node23"><a xlink:href="src/libs/i18n/locales/index.ts" xlink:title="index.ts">
<path fill="#ddfeff" stroke="black" d="M952,-165.04C952,-165.04 910,-165.04 910,-165.04 907,-165.04 904,-162.04 904,-159.04 904,-159.04 904,-153.04 904,-153.04 904,-150.04 907,-147.04 910,-147.04 910,-147.04 952,-147.04 952,-147.04 955,-147.04 958,-150.04 958,-153.04 958,-153.04 958,-159.04 958,-159.04 958,-162.04 955,-165.04 952,-165.04"/>
<text text-anchor="start" x="915" y="-153.84" font-family="Helvetica,sans-Serif" font-size="9.00">index.ts</text>
</a>
</g>
</g>
<!-- src/libs/i18n/hooks/useTranslation.ts&#45;&gt;src/libs/i18n/locales/index.ts -->
<g id="edge21" class="edge">
<title>src/libs/i18n/hooks/useTranslation.ts&#45;&gt;src/libs/i18n/locales/index.ts</title>
<path fill="none" stroke="#000000" stroke-width="2" stroke-opacity="0.200000" d="M863.14,-156.04C874.56,-156.04 886.74,-156.04 897.54,-156.04"/>
<polygon fill="#000000" fill-opacity="0.200000" stroke="#000000" stroke-width="2" stroke-opacity="0.200000" points="897.72,-158.14 903.72,-156.04 897.72,-153.94 897.72,-158.14"/>
</g>
<!-- src/libs/markdown/api.ts -->
<g id="node24" class="node">
<title>src/libs/markdown/api.ts</title>
<g id="a_node24"><a xlink:href="src/libs/markdown/api.ts" xlink:title="api.ts">
<path fill="#ddfeff" stroke="black" d="M725.5,-67.04C725.5,-67.04 683.5,-67.04 683.5,-67.04 680.5,-67.04 677.5,-64.04 677.5,-61.04 677.5,-61.04 677.5,-55.04 677.5,-55.04 677.5,-52.04 680.5,-49.04 683.5,-49.04 683.5,-49.04 725.5,-49.04 725.5,-49.04 728.5,-49.04 731.5,-52.04 731.5,-55.04 731.5,-55.04 731.5,-61.04 731.5,-61.04 731.5,-64.04 728.5,-67.04 725.5,-67.04"/>
<text text-anchor="start" x="693.5" y="-55.84" font-family="Helvetica,sans-Serif" font-size="9.00">api.ts</text>
</a>
</g>
</g>
<!-- src/libs/markdown/markdownToHtml.ts -->
<g id="node25" class="node">
<title>src/libs/markdown/markdownToHtml.ts</title>
<g id="a_node25"><a xlink:href="src/libs/markdown/markdownToHtml.ts" xlink:title="markdownToHtml.ts">
<path fill="#ddfeff" stroke="black" d="M747,-97.04C747,-97.04 662,-97.04 662,-97.04 659,-97.04 656,-94.04 656,-91.04 656,-91.04 656,-85.04 656,-85.04 656,-82.04 659,-79.04 662,-79.04 662,-79.04 747,-79.04 747,-79.04 750,-79.04 753,-82.04 753,-85.04 753,-85.04 753,-91.04 753,-91.04 753,-94.04 750,-97.04 747,-97.04"/>
<text text-anchor="start" x="664" y="-85.84" font-family="Helvetica,sans-Serif" font-size="9.00">markdownToHtml.ts</text>
</a>
</g>
</g>
<!-- src/libs/next/components/ChakraNextImage/ChakraNextImage.tsx -->
<g id="node26" class="node">
<title>src/libs/next/components/ChakraNextImage/ChakraNextImage.tsx</title>
<g id="a_node26"><a xlink:href="src/libs/next/components/ChakraNextImage/ChakraNextImage.tsx" xlink:title="ChakraNextImage.tsx">
<path fill="#bbfeff" stroke="black" d="M977,-327.04C977,-327.04 885,-327.04 885,-327.04 882,-327.04 879,-324.04 879,-321.04 879,-321.04 879,-315.04 879,-315.04 879,-312.04 882,-309.04 885,-309.04 885,-309.04 977,-309.04 977,-309.04 980,-309.04 983,-312.04 983,-315.04 983,-315.04 983,-321.04 983,-321.04 983,-324.04 980,-327.04 977,-327.04"/>
<text text-anchor="start" x="887" y="-315.84" font-family="Helvetica,sans-Serif" font-size="9.00">ChakraNextImage.tsx</text>
</a>
</g>
</g>
<!-- src/libs/next/components/ChakraNextImage/ChakraNextImage.tsx&#45;&gt;src/libs/chakra/components/Box/index.tsx -->
<g id="edge23" class="edge">
<title>src/libs/next/components/ChakraNextImage/ChakraNextImage.tsx&#45;&gt;src/libs/chakra/components/Box/index.tsx</title>
<path fill="none" stroke="#000000" stroke-width="2" stroke-opacity="0.200000" d="M942.66,-327.25C959.55,-342.53 992.07,-374.96 1007,-410.04 1018.57,-437.23 999.92,-450.63 1015,-476.04 1019.23,-483.16 1025.88,-489.05 1032.65,-493.67"/>
<polygon fill="#000000" fill-opacity="0.200000" stroke="#000000" stroke-width="2" stroke-opacity="0.200000" points="1031.63,-495.51 1037.82,-496.96 1033.88,-491.96 1031.63,-495.51"/>
</g>
<!-- src/libs/next/components/ChakraNextImage/index.tsx&#45;&gt;src/libs/next/components/ChakraNextImage/ChakraNextImage.tsx -->
<g id="edge24" class="edge">
<title>src/libs/next/components/ChakraNextImage/index.tsx&#45;&gt;src/libs/next/components/ChakraNextImage/ChakraNextImage.tsx</title>
<path fill="none" stroke="#000000" stroke-width="2" stroke-opacity="0.200000" d="M847.11,-318.04C854.89,-318.04 863.74,-318.04 872.69,-318.04"/>
<polygon fill="#000000" fill-opacity="0.200000" stroke="#000000" stroke-width="2" stroke-opacity="0.200000" points="872.89,-320.14 878.89,-318.04 872.89,-315.94 872.89,-320.14"/>
</g>
<!-- src/libs/next/components/ChakraNextLink/ChakraNextLink.tsx -->
<g id="node28" class="node">
<title>src/libs/next/components/ChakraNextLink/ChakraNextLink.tsx</title>
<g id="a_node28"><a xlink:href="src/libs/next/components/ChakraNextLink/ChakraNextLink.tsx" xlink:title="ChakraNextLink.tsx">
<path fill="#bbfeff" stroke="black" d="M973,-267.04C973,-267.04 889,-267.04 889,-267.04 886,-267.04 883,-264.04 883,-261.04 883,-261.04 883,-255.04 883,-255.04 883,-252.04 886,-249.04 889,-249.04 889,-249.04 973,-249.04 973,-249.04 976,-249.04 979,-252.04 979,-255.04 979,-255.04 979,-261.04 979,-261.04 979,-264.04 976,-267.04 973,-267.04"/>
<text text-anchor="start" x="891" y="-255.84" font-family="Helvetica,sans-Serif" font-size="9.00">ChakraNextLink.tsx</text>
</a>
</g>
</g>
<!-- src/libs/next/components/ChakraNextLink/index.tsx&#45;&gt;src/libs/next/components/ChakraNextLink/ChakraNextLink.tsx -->
<g id="edge25" class="edge">
<title>src/libs/next/components/ChakraNextLink/index.tsx&#45;&gt;src/libs/next/components/ChakraNextLink/ChakraNextLink.tsx</title>
<path fill="none" stroke="#000000" stroke-width="2" stroke-opacity="0.200000" d="M847.11,-258.04C856.06,-258.04 866.43,-258.04 876.73,-258.04"/>
<polygon fill="#000000" fill-opacity="0.200000" stroke="#000000" stroke-width="2" stroke-opacity="0.200000" points="876.79,-260.14 882.79,-258.04 876.79,-255.94 876.79,-260.14"/>
</g>
<!-- src/pages/_app.tsx -->
<g id="node30" class="node">
<title>src/pages/_app.tsx</title>
<g id="a_node30"><a xlink:href="src/pages/_app.tsx" xlink:title="_app.tsx">
<path fill="#bbfeff" stroke="black" d="M212,-43.04C212,-43.04 170,-43.04 170,-43.04 167,-43.04 164,-40.04 164,-37.04 164,-37.04 164,-31.04 164,-31.04 164,-28.04 167,-25.04 170,-25.04 170,-25.04 212,-25.04 212,-25.04 215,-25.04 218,-28.04 218,-31.04 218,-31.04 218,-37.04 218,-37.04 218,-40.04 215,-43.04 212,-43.04"/>
<text text-anchor="start" x="173.5" y="-31.84" font-family="Helvetica,sans-Serif" font-size="9.00">_app.tsx</text>
</a>
</g>
</g>
<!-- src/pages/_app.tsx&#45;&gt;src/libs/chakra/theme/index.ts -->
<g id="edge28" class="edge">
<title>src/pages/_app.tsx&#45;&gt;src/libs/chakra/theme/index.ts</title>
<path fill="none" stroke="#000000" stroke-width="2" stroke-opacity="0.200000" d="M218.22,-30.72C257.61,-26.04 334.45,-18.04 400,-18.04 400,-18.04 400,-18.04 821,-18.04 903.79,-18.04 946.52,28.49 1007,-28.04 1036.5,-55.61 1052.79,-352.04 1056.29,-422.89"/>
<polygon fill="#000000" fill-opacity="0.200000" stroke="#000000" stroke-width="2" stroke-opacity="0.200000" points="1054.19,-423.14 1056.58,-429.03 1058.39,-422.93 1054.19,-423.14"/>
</g>
<!-- src/pages/_document.tsx -->
<g id="node31" class="node">
<title>src/pages/_document.tsx</title>
<g id="a_node31"><a xlink:href="src/pages/_document.tsx" xlink:title="_document.tsx">
<path fill="#bbfeff" stroke="black" d="M97.5,-43.04C97.5,-43.04 33.5,-43.04 33.5,-43.04 30.5,-43.04 27.5,-40.04 27.5,-37.04 27.5,-37.04 27.5,-31.04 27.5,-31.04 27.5,-28.04 30.5,-25.04 33.5,-25.04 33.5,-25.04 97.5,-25.04 97.5,-25.04 100.5,-25.04 103.5,-28.04 103.5,-31.04 103.5,-31.04 103.5,-37.04 103.5,-37.04 103.5,-40.04 100.5,-43.04 97.5,-43.04"/>
<text text-anchor="start" x="35.5" y="-31.84" font-family="Helvetica,sans-Serif" font-size="9.00">_document.tsx</text>
</a>
</g>
</g>
<!-- src/pages/_document.tsx&#45;&gt;src/libs/chakra/theme/index.ts -->
<g id="edge29" class="edge">
<title>src/pages/_document.tsx&#45;&gt;src/libs/chakra/theme/index.ts</title>
<path fill="none" stroke="#000000" stroke-width="2" stroke-opacity="0.200000" d="M90.84,-43.13C98.46,-45.55 106.98,-47.83 115,-49.04 178.28,-58.6 195.01,-49.96 259,-49.04 370.57,-47.43 651.42,-17.01 761,-38.04 876.58,-60.21 933.19,-44.37 1007,-136.04 1043.27,-181.09 1054.01,-367.83 1056.41,-422.77"/>
<polygon fill="#000000" fill-opacity="0.200000" stroke="#000000" stroke-width="2" stroke-opacity="0.200000" points="1054.32,-422.89 1056.66,-428.8 1058.51,-422.72 1054.32,-422.89"/>
</g>
<!-- src/pages/home/[[...page]].tsx -->
<g id="node32" class="node">
<title>src/pages/home/[[...page]].tsx</title>
<g id="a_node32"><a xlink:href="src/pages/home/[[...page]].tsx" xlink:title="[[...page]].tsx">
<path fill="#bbfeff" stroke="black" d="M93,-77.04C93,-77.04 38,-77.04 38,-77.04 35,-77.04 32,-74.04 32,-71.04 32,-71.04 32,-65.04 32,-65.04 32,-62.04 35,-59.04 38,-59.04 38,-59.04 93,-59.04 93,-59.04 96,-59.04 99,-62.04 99,-65.04 99,-65.04 99,-71.04 99,-71.04 99,-74.04 96,-77.04 93,-77.04"/>
<text text-anchor="start" x="40" y="-65.84" font-family="Helvetica,sans-Serif" font-size="9.00">[[...page]].tsx</text>
</a>
</g>
</g>
<!-- src/pages/home/[[...page]].tsx&#45;&gt;src/features/home/components/HomePage.tsx -->
<g id="edge30" class="edge">
<title>src/pages/home/[[...page]].tsx&#45;&gt;src/features/home/components/HomePage.tsx</title>
<path fill="none" stroke="#000000" stroke-width="2" stroke-opacity="0.200000" d="M80.13,-77.1C89.59,-84.26 101.44,-95.15 107,-108.04 114.68,-125.85 102.53,-442.18 115,-457.04 122.7,-466.22 134.3,-470.79 146.09,-472.86"/>
<polygon fill="#000000" fill-opacity="0.200000" stroke="#000000" stroke-width="2" stroke-opacity="0.200000" points="146.01,-474.97 152.25,-473.73 146.6,-470.81 146.01,-474.97"/>
</g>
<!-- src/pages/home/[[...page]].tsx&#45;&gt;src/shared/type/post.ts -->
<g id="edge35" class="edge">
<title>src/pages/home/[[...page]].tsx&#45;&gt;src/shared/type/post.ts</title>
<path fill="none" stroke="#000000" stroke-width="2" stroke-opacity="0.200000" d="M76,-77.08C84.32,-85.08 96.66,-97.14 107,-108.04 110.68,-111.92 111.31,-113.16 115,-117.04 176.79,-181.88 200.9,-189.86 259,-258.04 278.1,-280.46 297.25,-308.99 308.06,-325.81"/>
<polygon fill="#000000" fill-opacity="0.200000" stroke="#000000" stroke-width="2" stroke-opacity="0.200000" points="306.4,-327.11 311.4,-331.04 309.94,-324.85 306.4,-327.11"/>
</g>
<!-- src/pages/home/[[...page]].tsx&#45;&gt;src/features/home/components/HomePageLayout.tsx -->
<g id="edge31" class="edge">
<title>src/pages/home/[[...page]].tsx&#45;&gt;src/features/home/components/HomePageLayout.tsx</title>
<path fill="none" stroke="#000000" stroke-width="2" stroke-opacity="0.200000" d="M80.02,-77.16C89.41,-84.33 101.24,-95.24 107,-108.04 120.6,-138.28 107.78,-224.67 115,-257.04 129.78,-323.32 165.87,-396.51 181.99,-427.21"/>
<polygon fill="#000000" fill-opacity="0.200000" stroke="#000000" stroke-width="2" stroke-opacity="0.200000" points="180.27,-428.45 184.94,-432.77 183.98,-426.48 180.27,-428.45"/>
</g>
<!-- src/pages/home/[[...page]].tsx&#45;&gt;src/libs/markdown/api.ts -->
<g id="edge32" class="edge">
<title>src/pages/home/[[...page]].tsx&#45;&gt;src/libs/markdown/api.ts</title>
<path fill="none" stroke="#000000" stroke-width="2" stroke-opacity="0.200000" d="M99.08,-67.55C171.11,-66.48 342.1,-64.04 400,-64.04 400,-64.04 400,-64.04 508,-64.04 565.3,-64.04 632,-61.43 670.81,-59.65"/>
<polygon fill="#000000" fill-opacity="0.200000" stroke="#000000" stroke-width="2" stroke-opacity="0.200000" points="671.37,-61.73 677.26,-59.36 671.17,-57.54 671.37,-61.73"/>
</g>
<!-- src/pages/home/[[...page]].tsx&#45;&gt;src/pages/_app.tsx -->
<g id="edge33" class="edge">
<title>src/pages/home/[[...page]].tsx&#45;&gt;src/pages/_app.tsx</title>
<path fill="none" stroke="#000000" stroke-width="2" stroke-opacity="0.200000" d="M99.27,-59.02C117.38,-54.03 139.78,-47.86 157.79,-42.9"/>
<polygon fill="#000000" fill-opacity="0.200000" stroke="#000000" stroke-width="2" stroke-opacity="0.200000" points="158.5,-44.89 163.72,-41.27 157.38,-40.84 158.5,-44.89"/>
</g>
<!-- src/shared/components/BasicLayout/index.tsx -->
<g id="node33" class="node">
<title>src/shared/components/BasicLayout/index.tsx</title>
<g id="a_node33"><a xlink:href="src/shared/components/BasicLayout/index.tsx" xlink:title="index.tsx">
<path fill="#bbfeff" stroke="black" d="M339,-203.04C339,-203.04 297,-203.04 297,-203.04 294,-203.04 291,-200.04 291,-197.04 291,-197.04 291,-191.04 291,-191.04 291,-188.04 294,-185.04 297,-185.04 297,-185.04 339,-185.04 339,-185.04 342,-185.04 345,-188.04 345,-191.04 345,-191.04 345,-197.04 345,-197.04 345,-200.04 342,-203.04 339,-203.04"/>
<text text-anchor="start" x="299.5" y="-191.84" font-family="Helvetica,sans-Serif" font-size="9.00">index.tsx</text>
</a>
</g>
</g>
<!-- src/pages/home/[[...page]].tsx&#45;&gt;src/shared/components/BasicLayout/index.tsx -->
<g id="edge34" class="edge">
<title>src/pages/home/[[...page]].tsx&#45;&gt;src/shared/components/BasicLayout/index.tsx</title>
<path fill="none" stroke="#000000" stroke-width="2" stroke-opacity="0.200000" d="M88.13,-77.23C96.49,-80.71 106.15,-84.65 115,-88.04 178.4,-112.32 211.73,-90.3 259,-139.04 267.12,-147.41 259.76,-154.89 267,-164.04 272.82,-171.39 280.98,-177.35 289.01,-181.96"/>
<polygon fill="#000000" fill-opacity="0.200000" stroke="#000000" stroke-width="2" stroke-opacity="0.200000" points="288.25,-183.93 294.53,-184.94 290.25,-180.24 288.25,-183.93"/>
</g>
<!-- src/shared/utils/array.ts -->
<g id="node34" class="node">
<title>src/shared/utils/array.ts</title>
<g id="a_node34"><a xlink:href="src/shared/utils/array.ts" xlink:title="array.ts">
<path fill="#ddfeff" stroke="black" d="M339,-135.04C339,-135.04 297,-135.04 297,-135.04 294,-135.04 291,-132.04 291,-129.04 291,-129.04 291,-123.04 291,-123.04 291,-120.04 294,-117.04 297,-117.04 297,-117.04 339,-117.04 339,-117.04 342,-117.04 345,-120.04 345,-123.04 345,-123.04 345,-129.04 345,-129.04 345,-132.04 342,-135.04 339,-135.04"/>
<text text-anchor="start" x="302.5" y="-123.84" font-family="Helvetica,sans-Serif" font-size="9.00">array.ts</text>
</a>
</g>
</g>
<!-- src/pages/home/[[...page]].tsx&#45;&gt;src/shared/utils/array.ts -->
<g id="edge36" class="edge">
<title>src/pages/home/[[...page]].tsx&#45;&gt;src/shared/utils/array.ts</title>
<path fill="none" stroke="#000000" stroke-width="2" stroke-opacity="0.200000" d="M99.28,-72.15C152.25,-78.83 251.52,-91.56 259,-94.04 273.08,-98.69 287.68,-106.77 298.72,-113.65"/>
<polygon fill="#000000" fill-opacity="0.200000" stroke="#000000" stroke-width="2" stroke-opacity="0.200000" points="297.64,-115.45 303.83,-116.91 299.9,-111.91 297.64,-115.45"/>
</g>
<!-- src/shared/components/BasicLayout/BasicLayout.tsx -->
<g id="node36" class="node">
<title>src/shared/components/BasicLayout/BasicLayout.tsx</title>
<g id="a_node36"><a xlink:href="src/shared/components/BasicLayout/BasicLayout.tsx" xlink:title="BasicLayout.tsx">
<path fill="#bbfeff" stroke="black" d="M435,-203.04C435,-203.04 367,-203.04 367,-203.04 364,-203.04 361,-200.04 361,-197.04 361,-197.04 361,-191.04 361,-191.04 361,-188.04 364,-185.04 367,-185.04 367,-185.04 435,-185.04 435,-185.04 438,-185.04 441,-188.04 441,-191.04 441,-191.04 441,-197.04 441,-197.04 441,-200.04 438,-203.04 435,-203.04"/>
<text text-anchor="start" x="369" y="-191.84" font-family="Helvetica,sans-Serif" font-size="9.00">BasicLayout.tsx</text>
</a>
</g>
</g>
<!-- src/shared/components/BasicLayout/index.tsx&#45;&gt;src/shared/components/BasicLayout/BasicLayout.tsx -->
<g id="edge47" class="edge">
<title>src/shared/components/BasicLayout/index.tsx&#45;&gt;src/shared/components/BasicLayout/BasicLayout.tsx</title>
<path fill="none" stroke="#000000" stroke-width="2" stroke-opacity="0.200000" d="M345.07,-194.04C348.25,-194.04 351.57,-194.04 354.93,-194.04"/>
<polygon fill="#000000" fill-opacity="0.200000" stroke="#000000" stroke-width="2" stroke-opacity="0.200000" points="355,-196.14 361,-194.04 355,-191.94 355,-196.14"/>
</g>
<!-- src/pages/post/[slug].tsx -->
<g id="node35" class="node">
<title>src/pages/post/[slug].tsx</title>
<g id="a_node35"><a xlink:href="src/pages/post/[slug].tsx" xlink:title="[slug].tsx">
<path fill="#bbfeff" stroke="black" d="M86.5,-137.04C86.5,-137.04 44.5,-137.04 44.5,-137.04 41.5,-137.04 38.5,-134.04 38.5,-131.04 38.5,-131.04 38.5,-125.04 38.5,-125.04 38.5,-122.04 41.5,-119.04 44.5,-119.04 44.5,-119.04 86.5,-119.04 86.5,-119.04 89.5,-119.04 92.5,-122.04 92.5,-125.04 92.5,-125.04 92.5,-131.04 92.5,-131.04 92.5,-134.04 89.5,-137.04 86.5,-137.04"/>
<text text-anchor="start" x="47.5" y="-125.84" font-family="Helvetica,sans-Serif" font-size="9.00">[slug].tsx</text>
</a>
</g>
</g>
<!-- src/pages/post/[slug].tsx&#45;&gt;src/shared/type/post.ts -->
<g id="edge43" class="edge">
<title>src/pages/post/[slug].tsx&#45;&gt;src/shared/type/post.ts</title>
<path fill="none" stroke="#000000" stroke-width="2" stroke-opacity="0.200000" d="M67.44,-137.17C70.29,-160.29 80.85,-221.84 115,-257.04 161.9,-305.38 240.98,-326.6 284.99,-335.06"/>
<polygon fill="#000000" fill-opacity="0.200000" stroke="#000000" stroke-width="2" stroke-opacity="0.200000" points="284.68,-337.14 290.96,-336.17 285.45,-333.01 284.68,-337.14"/>
</g>
<!-- src/pages/post/[slug].tsx&#45;&gt;src/features/post/components/PostPage.tsx -->
<g id="edge38" class="edge">
<title>src/pages/post/[slug].tsx&#45;&gt;src/features/post/components/PostPage.tsx</title>
<path fill="none" stroke="#000000" stroke-width="2" stroke-opacity="0.200000" d="M66.84,-137.13C69.18,-198.17 83.87,-546.94 115,-581.04 123.77,-590.64 136.81,-595.1 149.57,-596.93"/>
<polygon fill="#000000" fill-opacity="0.200000" stroke="#000000" stroke-width="2" stroke-opacity="0.200000" points="149.6,-599.05 155.79,-597.63 150.07,-594.87 149.6,-599.05"/>
</g>
<!-- src/pages/post/[slug].tsx&#45;&gt;src/features/post/components/PostPageLayout.tsx -->
<g id="edge39" class="edge">
<title>src/pages/post/[slug].tsx&#45;&gt;src/features/post/components/PostPageLayout.tsx</title>
<path fill="none" stroke="#000000" stroke-width="2" stroke-opacity="0.200000" d="M66.71,-137.34C68.02,-189.31 76.36,-443.77 115,-510.04 126.4,-529.59 147.59,-544.44 164.55,-553.92"/>
<polygon fill="#000000" fill-opacity="0.200000" stroke="#000000" stroke-width="2" stroke-opacity="0.200000" points="163.84,-555.92 170.11,-556.93 165.83,-552.23 163.84,-555.92"/>
</g>
<!-- src/pages/post/[slug].tsx&#45;&gt;src/libs/markdown/api.ts -->
<g id="edge40" class="edge">
<title>src/pages/post/[slug].tsx&#45;&gt;src/libs/markdown/api.ts</title>
<path fill="none" stroke="#000000" stroke-width="2" stroke-opacity="0.200000" d="M92.66,-122.03C99.89,-120.39 107.75,-118.62 115,-117.04 182.44,-102.29 198.55,-93.99 267,-85.04 325.69,-77.36 340.81,-78.04 400,-78.04 400,-78.04 400,-78.04 508,-78.04 565.81,-78.04 632.73,-69.28 671.39,-63.35"/>
<polygon fill="#000000" fill-opacity="0.200000" stroke="#000000" stroke-width="2" stroke-opacity="0.200000" points="671.73,-65.42 677.34,-62.43 671.09,-61.27 671.73,-65.42"/>
</g>
<!-- src/pages/post/[slug].tsx&#45;&gt;src/libs/markdown/markdownToHtml.ts -->
<g id="edge41" class="edge">
<title>src/pages/post/[slug].tsx&#45;&gt;src/libs/markdown/markdownToHtml.ts</title>
<path fill="none" stroke="#000000" stroke-width="2" stroke-opacity="0.200000" d="M92.54,-132.75C131.26,-138.41 205.22,-143.98 259,-116.04 264.05,-113.41 262.01,-108.77 267,-106.04 319.15,-77.52 340.56,-92.04 400,-92.04 400,-92.04 400,-92.04 508,-92.04 555.85,-92.04 610.28,-90.83 649.53,-89.74"/>
<polygon fill="#000000" fill-opacity="0.200000" stroke="#000000" stroke-width="2" stroke-opacity="0.200000" points="649.76,-91.83 655.7,-89.56 649.64,-87.63 649.76,-91.83"/>
</g>
<!-- src/pages/post/[slug].tsx&#45;&gt;src/pages/_app.tsx -->
<g id="edge37" class="edge">
<title>src/pages/post/[slug].tsx&#45;&gt;src/pages/_app.tsx</title>
<path fill="none" stroke="#000000" stroke-width="2" stroke-opacity="0.200000" d="M85.14,-118.99C92.19,-115.3 100.16,-110.78 107,-106.04 133.14,-87.92 160.44,-62.86 176.3,-47.58"/>
<polygon fill="#000000" fill-opacity="0.200000" stroke="#000000" stroke-width="2" stroke-opacity="0.200000" points="178,-48.86 180.84,-43.18 175.07,-45.85 178,-48.86"/>
</g>
<!-- src/pages/post/[slug].tsx&#45;&gt;src/shared/components/BasicLayout/index.tsx -->
<g id="edge42" class="edge">
<title>src/pages/post/[slug].tsx&#45;&gt;src/shared/components/BasicLayout/index.tsx</title>
<path fill="none" stroke="#000000" stroke-width="2" stroke-opacity="0.200000" d="M92.83,-134.98C139.07,-147.16 234.66,-172.34 284.76,-185.55"/>
<polygon fill="#000000" fill-opacity="0.200000" stroke="#000000" stroke-width="2" stroke-opacity="0.200000" points="284.31,-187.6 290.64,-187.09 285.38,-183.53 284.31,-187.6"/>
</g>
<!-- src/shared/components/BasicLayout/BasicLayout.tsx&#45;&gt;src/libs/chakra/index.ts -->
<g id="edge44" class="edge">
<title>src/shared/components/BasicLayout/BasicLayout.tsx&#45;&gt;src/libs/chakra/index.ts</title>
<path fill="none" stroke="#000000" stroke-width="2" stroke-opacity="0.200000" d="M406.88,-203.22C428.22,-242.33 517.76,-395.88 640,-459.04 732.57,-506.87 768.76,-478.93 871,-499.04 879.78,-500.76 889.26,-502.78 898,-504.71"/>
<polygon fill="#000000" fill-opacity="0.200000" stroke="#000000" stroke-width="2" stroke-opacity="0.200000" points="897.6,-506.77 903.91,-506.02 898.51,-502.67 897.6,-506.77"/>
</g>
<!-- src/shared/components/Footer/index.tsx -->
<g id="node37" class="node">
<title>src/shared/components/Footer/index.tsx</title>
<g id="a_node37"><a xlink:href="src/shared/components/Footer/index.tsx" xlink:title="index.tsx">
<path fill="#bbfeff" stroke="black" d="M528,-203.04C528,-203.04 486,-203.04 486,-203.04 483,-203.04 480,-200.04 480,-197.04 480,-197.04 480,-191.04 480,-191.04 480,-188.04 483,-185.04 486,-185.04 486,-185.04 528,-185.04 528,-185.04 531,-185.04 534,-188.04 534,-191.04 534,-191.04 534,-197.04 534,-197.04 534,-200.04 531,-203.04 528,-203.04"/>
<text text-anchor="start" x="488.5" y="-191.84" font-family="Helvetica,sans-Serif" font-size="9.00">index.tsx</text>
</a>
</g>
</g>
<!-- src/shared/components/BasicLayout/BasicLayout.tsx&#45;&gt;src/shared/components/Footer/index.tsx -->
<g id="edge45" class="edge">
<title>src/shared/components/BasicLayout/BasicLayout.tsx&#45;&gt;src/shared/components/Footer/index.tsx</title>
<path fill="none" stroke="#000000" stroke-width="2" stroke-opacity="0.200000" d="M441.02,-194.04C451.71,-194.04 463.19,-194.04 473.47,-194.04"/>
<polygon fill="#000000" fill-opacity="0.200000" stroke="#000000" stroke-width="2" stroke-opacity="0.200000" points="473.71,-196.14 479.71,-194.04 473.71,-191.94 473.71,-196.14"/>
</g>
<!-- src/shared/components/Header/index.tsx -->
<g id="node38" class="node">
<title>src/shared/components/Header/index.tsx</title>
<g id="a_node38"><a xlink:href="src/shared/components/Header/index.tsx" xlink:title="index.tsx">
<path fill="#bbfeff" stroke="black" d="M528,-263.04C528,-263.04 486,-263.04 486,-263.04 483,-263.04 480,-260.04 480,-257.04 480,-257.04 480,-251.04 480,-251.04 480,-248.04 483,-245.04 486,-245.04 486,-245.04 528,-245.04 528,-245.04 531,-245.04 534,-248.04 534,-251.04 534,-251.04 534,-257.04 534,-257.04 534,-260.04 531,-263.04 528,-263.04"/>
<text text-anchor="start" x="488.5" y="-251.84" font-family="Helvetica,sans-Serif" font-size="9.00">index.tsx</text>
</a>
</g>
</g>
<!-- src/shared/components/BasicLayout/BasicLayout.tsx&#45;&gt;src/shared/components/Header/index.tsx -->
<g id="edge46" class="edge">
<title>src/shared/components/BasicLayout/BasicLayout.tsx&#45;&gt;src/shared/components/Header/index.tsx</title>
<path fill="none" stroke="#000000" stroke-width="2" stroke-opacity="0.200000" d="M417.8,-203.15C435.77,-213.52 465.19,-230.5 485.06,-241.96"/>
<polygon fill="#000000" fill-opacity="0.200000" stroke="#000000" stroke-width="2" stroke-opacity="0.200000" points="484.15,-243.86 490.4,-245.04 486.25,-240.22 484.15,-243.86"/>
</g>
<!-- src/shared/components/Footer/Footer.tsx -->
<g id="node39" class="node">
<title>src/shared/components/Footer/Footer.tsx</title>
<g id="a_node39"><a xlink:href="src/shared/components/Footer/Footer.tsx" xlink:title="Footer.tsx">
<path fill="#bbfeff" stroke="black" d="M599.5,-203.04C599.5,-203.04 555.5,-203.04 555.5,-203.04 552.5,-203.04 549.5,-200.04 549.5,-197.04 549.5,-197.04 549.5,-191.04 549.5,-191.04 549.5,-188.04 552.5,-185.04 555.5,-185.04 555.5,-185.04 599.5,-185.04 599.5,-185.04 602.5,-185.04 605.5,-188.04 605.5,-191.04 605.5,-191.04 605.5,-197.04 605.5,-197.04 605.5,-200.04 602.5,-203.04 599.5,-203.04"/>
<text text-anchor="start" x="557.5" y="-191.84" font-family="Helvetica,sans-Serif" font-size="9.00">Footer.tsx</text>
</a>
</g>
</g>
<!-- src/shared/components/Footer/index.tsx&#45;&gt;src/shared/components/Footer/Footer.tsx -->
<g id="edge51" class="edge">
<title>src/shared/components/Footer/index.tsx&#45;&gt;src/shared/components/Footer/Footer.tsx</title>
<path fill="none" stroke="#000000" stroke-width="2" stroke-opacity="0.200000" d="M534.29,-194.04C537.25,-194.04 540.29,-194.04 543.32,-194.04"/>
<polygon fill="#000000" fill-opacity="0.200000" stroke="#000000" stroke-width="2" stroke-opacity="0.200000" points="543.49,-196.14 549.49,-194.04 543.49,-191.94 543.49,-196.14"/>
</g>
<!-- src/shared/components/Header/Header.tsx -->
<g id="node40" class="node">
<title>src/shared/components/Header/Header.tsx</title>
<g id="a_node40"><a xlink:href="src/shared/components/Header/Header.tsx" xlink:title="Header.tsx">
<path fill="#bbfeff" stroke="black" d="M602,-263.04C602,-263.04 553,-263.04 553,-263.04 550,-263.04 547,-260.04 547,-257.04 547,-257.04 547,-251.04 547,-251.04 547,-248.04 550,-245.04 553,-245.04 553,-245.04 602,-245.04 602,-245.04 605,-245.04 608,-248.04 608,-251.04 608,-251.04 608,-257.04 608,-257.04 608,-260.04 605,-263.04 602,-263.04"/>
<text text-anchor="start" x="555" y="-251.84" font-family="Helvetica,sans-Serif" font-size="9.00">Header.tsx</text>
</a>
</g>
</g>
<!-- src/shared/components/Header/index.tsx&#45;&gt;src/shared/components/Header/Header.tsx -->
<g id="edge55" class="edge">
<title>src/shared/components/Header/index.tsx&#45;&gt;src/shared/components/Header/Header.tsx</title>
<path fill="none" stroke="#000000" stroke-width="2" stroke-opacity="0.200000" d="M534.29,-254.04C536.33,-254.04 538.4,-254.04 540.49,-254.04"/>
<polygon fill="#000000" fill-opacity="0.200000" stroke="#000000" stroke-width="2" stroke-opacity="0.200000" points="540.74,-256.14 546.74,-254.04 540.74,-251.94 540.74,-256.14"/>
</g>
<!-- src/shared/components/Footer/Footer.tsx&#45;&gt;src/libs/chakra/index.ts -->
<g id="edge48" class="edge">
<title>src/shared/components/Footer/Footer.tsx&#45;&gt;src/libs/chakra/index.ts</title>
<path fill="none" stroke="#000000" stroke-width="2" stroke-opacity="0.200000" d="M598.14,-203.13C610.19,-209.84 624.67,-220.21 632,-234.04 641.06,-251.14 627.6,-393.18 640,-408.04 656.88,-428.25 847.51,-449.13 871,-461.04 889.39,-470.36 906.77,-486.63 917.84,-498.29"/>
<polygon fill="#000000" fill-opacity="0.200000" stroke="#000000" stroke-width="2" stroke-opacity="0.200000" points="916.57,-500 922.19,-502.97 919.64,-497.14 916.57,-500"/>
</g>
<!-- src/shared/components/Footer/Footer.tsx&#45;&gt;src/libs/i18n/index.ts -->
<g id="edge49" class="edge">
<title>src/shared/components/Footer/Footer.tsx&#45;&gt;src/libs/i18n/index.ts</title>
<path fill="none" stroke="#000000" stroke-width="2" stroke-opacity="0.200000" d="M605.62,-191.43C624.88,-189.59 650.83,-187.09 671.17,-185.14"/>
<polygon fill="#000000" fill-opacity="0.200000" stroke="#000000" stroke-width="2" stroke-opacity="0.200000" points="671.51,-187.22 677.29,-184.55 671.11,-183.04 671.51,-187.22"/>
</g>
<!-- src/shared/components/Footer/Footer.tsx&#45;&gt;src/libs/next/index.ts -->
<g id="edge50" class="edge">
<title>src/shared/components/Footer/Footer.tsx&#45;&gt;src/libs/next/index.ts</title>
<path fill="none" stroke="#000000" stroke-width="2" stroke-opacity="0.200000" d="M596.14,-203.07C618.07,-214.3 655.58,-233.5 679.95,-245.98"/>
<polygon fill="#000000" fill-opacity="0.200000" stroke="#000000" stroke-width="2" stroke-opacity="0.200000" points="679.24,-247.98 685.54,-248.84 681.16,-244.24 679.24,-247.98"/>
</g>
<!-- src/shared/components/Header/Header.tsx&#45;&gt;src/libs/chakra/index.ts -->
<g id="edge52" class="edge">
<title>src/shared/components/Header/Header.tsx&#45;&gt;src/libs/chakra/index.ts</title>
<path fill="none" stroke="#000000" stroke-width="2" stroke-opacity="0.200000" d="M578.43,-263.18C578.75,-293.7 584.22,-392.76 640,-440.04 719.27,-507.22 773.44,-440.29 871,-476.04 886.24,-481.62 901.85,-491.36 913.18,-499.3"/>
<polygon fill="#000000" fill-opacity="0.200000" stroke="#000000" stroke-width="2" stroke-opacity="0.200000" points="911.97,-501.01 918.07,-502.8 914.41,-497.6 911.97,-501.01"/>
</g>
<!-- src/shared/components/Header/Header.tsx&#45;&gt;src/libs/i18n/index.ts -->
<g id="edge53" class="edge">
<title>src/shared/components/Header/Header.tsx&#45;&gt;src/libs/i18n/index.ts</title>
<path fill="none" stroke="#000000" stroke-width="2" stroke-opacity="0.200000" d="M607.97,-245.01C616.2,-241.69 624.85,-237.4 632,-232.04 636.55,-228.63 635.76,-225.83 640,-222.04 652.13,-211.2 667.54,-201.42 680.14,-194.24"/>
<polygon fill="#000000" fill-opacity="0.200000" stroke="#000000" stroke-width="2" stroke-opacity="0.200000" points="681.49,-195.89 685.71,-191.13 679.44,-192.22 681.49,-195.89"/>
</g>
<!-- src/shared/components/Header/Header.tsx&#45;&gt;src/libs/next/index.ts -->
<g id="edge54" class="edge">
<title>src/shared/components/Header/Header.tsx&#45;&gt;src/libs/next/index.ts</title>
<path fill="none" stroke="#000000" stroke-width="2" stroke-opacity="0.200000" d="M608.12,-254.99C627.15,-255.6 651.85,-256.39 671.35,-257.01"/>
<polygon fill="#000000" fill-opacity="0.200000" stroke="#000000" stroke-width="2" stroke-opacity="0.200000" points="671.42,-259.11 677.48,-257.21 671.55,-254.91 671.42,-259.11"/>
</g>
</g>
</svg>
